<?xml version="1.0" encoding="UTF-8"?>
<svg id="Layer_1" data-name="Layer 1" xmlns="http://www.w3.org/2000/svg" viewBox="0 0 404.42 194.93">
  <defs>
    <style>
      .cls-1 {
        fill: #fffdf7;
      }
    </style>
  </defs>
  <path id="Path_2" data-name="Path 2" class="cls-1" d="M25.11,66.56c2.47-3.48,1.38-7.2,1.61-10.74-.11-.93,.14-1.88,.7-2.63,.65-.76,.51-2.26,.56-3.43,.06-1.52,.24-3.04,.55-4.53,.44-1.99,.87-4.03,1.49-5.99,.04-.14,.26-.35,.37-.34,.44,.05,.53,.47,.64,.8,.77,2.33,1.45,4.68,1.99,7.07,2.12,9.36,2.34,18.86,2.22,28.39-.09,6.92-.22,13.84-.08,20.76,.02,.9,.37,1.04,1.11,1.06,4.05,.1,8.11,.21,12.16,.37,.68,.03,1.6-.45,2,.64,.02,.06,.5-.01,.76-.06,6.3-1.24,12.71-1.86,19.13-1.83,.99,.02,2.17,.09,2.93-.96,.27-.37,.53,.11,.8,.2,1.16,.38,1.75-.11,1.56-1.31-1.11-6.96-2.38-13.89-3.32-20.87-.8-5.95-2.14-11.8-3.04-17.72-.84-5.51-3.16-10.59-3.84-16.09-.08-.67-.29-1.33-.39-2-.05-.29-.19-.7,.26-.8,.56-.13,.51,.34,.58,.69,.63,2.79,1.21,5.59,1.9,8.37,.72,2.87,1.58,5.69,2.59,8.47,.3-.45,.41-1,.31-1.53-.05-4.38,.16-8.75,.64-13.1,.01-.23,.04-.46,.09-.68,.06-.26,.1-.58,.44-.62,.42-.04,.48,.3,.57,.62,.62,2.18,1.25,4.36,1.87,6.54,.1,.34,.1,.71,.46,.99,.22-2.15,.44-4.25,.66-6.35,.05-.45,.04-1.09,.63-1.01,.55,.07,.26,.67,.24,1.05-.2,2.95-.37,5.91-.62,8.86-.09,1.74,.23,3.49,.92,5.09,.33-1.78,.66-3.57,.98-5.35,.11-.58,.22-1.16,.32-1.74,.05-.28,.14-.59,.44-.62,.42-.04,.5,.35,.53,.66,.13,1.22,.24,2.45,.32,3.67,.4,6.27,.77,12.55,1.17,18.82,.18,2.83,1.34,5.46,1.75,8.25,.3,2.02,.71,4.03,.96,6.06,.28,1.38,.75,2.72,1.41,3.96,.79,1.83,1.64,3.64,2.43,5.48,.26,.61,.5,.87,1.3,.76,2.74-.39,5.44-1.04,8.06-1.95,.37-.13,.98-.55,1.17,.1,.18,.59-.54,.59-.92,.76-.47,.15-.92,.39-1.3,.71,1.11,0,2.21,.04,3.32,0,4.8-.23,9.41,.92,14.02,2.03,.41,.1,1.21,.02,1.13,.71-.07,.6-.78,.47-1.24,.56-3.77,.75-7.54,1.49-11.72,2.32,1.18,.46,2.01,.73,2.8,1.1,.46,.21,1.22,.2,1.23,.87,0,.56-.67,.68-1.09,.91-2.97,1.57-6.14,2.76-9.41,3.53-2.01,.52-2.02,.51-1.29,2.44,1.32,3.53,2.48,7.11,3.47,10.75,.11,.4,.7,.99,.04,1.31-.6,.29-.82-.41-1.1-.78-2.64-3.59-5-7.38-7.06-11.33-.42-.79-2.41-1.08-2.95-.39-.33,.42-.07,.96,.03,1.43,1.33,6.45,3,12.82,4.57,19.21,2.05,7.97,3.51,16.08,4.37,24.27,.25,2.61,1.43,5.15,1.39,7.76-.07,4.89,2.05,9.33,2.48,14.08,.03,.34,.35,.74-.07,.99-.5,.31-.71-.22-.97-.47-.39-.45-.86-.83-1.38-1.12,.52,1.58,1.04,3.15,1.54,4.74,.09,.29,.51,.68,0,.94-.44,.23-.65-.17-.86-.46-1.53-2.24-2.84-4.63-3.91-7.12-.52-1.13-.65-2.47-1.84-3.46-.14,1.01-.25,1.93-.41,2.83-.07,.36,.11,.97-.47,.98-.48,.01-.55-.55-.69-.91-.98-2.54-1.76-5.16-2.35-7.82-.8-3.59-2.31-6.97-3.16-10.56-1.54-6.92-2.71-13.92-3.52-20.97-.89-6.95-1.7-13.91-2.55-20.86-.03-.27-.14-.54-.15-.8-.03-.99-.44-1.3-1.47-1.14-7.96,1.23-15.99,2.01-24.04,2.34-5.05,.21-10.09,.51-15.14,.66-1.12,.03-1.32,.37-1.26,1.39,.6,9.27,1.02,18.55,1.14,27.85,.21,2.26,.59,4.5,1.16,6.7,.53,3.38,.69,6.8,.47,10.21-.02,.34,.09,.81-.41,.88s-.53-.42-.67-.72c-.32-.72-.6-1.46-1.01-2.47-.62,4.53-.18,8.75-.36,12.96-.02,.55,.32,1.41-.35,1.59s-.82-.72-1.08-1.2c-.62-1.15-1.17-2.34-1.92-3.85-.18,1.93-.36,3.55-.47,5.17,0,1.98-.15,3.97-.44,5.93-.6,2.72-.89,5.5-1.54,8.2-.73,3.05-1.42,6.1-2.15,9.15-.1,.41-.05,1.03-.63,1.06-.48,.02-.55-.55-.71-.9-2.66-5.69-4.24-11.83-4.66-18.1-.55-7.41-.1-14.86,1.34-22.15,.16-1.31,.16-2.64-.02-3.95-.27-4.37-.28-8.74-.01-13.11,.21-4.15-.45-8.27-.46-12.42,0-3.19-.03-6.38,.02-9.57,.01-.87-.17-1.05-1.06-.87-6.37,1.26-12.76,2.46-19.14,3.68-.4,.09-.8,.16-1.21,.19-.24,.02-.45-.16-.47-.4-.03-.23,.14-.33,.31-.39,.43-.15,.86-.28,1.29-.41,2.57-.76,5.14-1.51,7.7-2.3,.32-.1,1.04,0,.56-.88-.29-.52,.5-.59,.89-.72,3.47-1.07,6.98-1.98,10.54-2.74,.26-.06,.55-.04,.75-.49-.97-.07-1.94-.02-2.9,.15-.4,.05-1.04,.36-1.19-.24-.17-.67,.58-.51,.93-.7,.17-.07,.35-.13,.53-.18-1.4-.89-3-1.42-4.66-1.53-2.62-.22-5.27,.07-7.78,.86-.4,.11-.94,.54-1.2-.05-.27-.62,.46-.63,.78-.89,.1-.08,.22-.16,.54-.4-1.86-.22-3.52-.41-5.19-.6-.68-.08-1.35-.17-2.03-.25-.32-.04-.72-.03-.7-.46s.42-.4,.73-.44c3.03-.35,6.06-.71,9.08-1.06,1.09,.03,2.18-.1,3.23-.38,.93-.41,1.65-.75,2.58-.19,.12,.07,.35-.04,.52-.09,.78-.22,1.54-.53,2.26-.91-2.68-.2-5.36-.37-8.04-.61-2.13-.19-4.25-.46-6.37-.73-.27-.03-.72,.06-.73-.41,0-.4,.39-.41,.64-.59,.43-.29,1.59,.06,1.04-1.19-.13-.29,.49-.46,.81-.6,1.39-.59,2.91-.81,4.41-.64,4.16,.37,8.26-.54,12.4-.51,.87,0,.63-.58,.63-1.03,0-4.42-.09-8.84,.28-13.25,.24-2.81,.59-5.61,.79-8.43,.32-4.32-.04-8.65,.07-12.97v-.96c0-.35-.09-.83,.42-.86,.58-.03,.4,.5,.41,.82,.01,2.09,0,4.17,0,6.48h-.05Zm45.65,34.02c1.28,.52,2.49-.08,3.97,.02-.53-.75-.96-.49-1.38-.44-.88,.09-1.67,.71-2.61,.44l-.09-.55c.1-.21,0-.24-.19-.21-1.46,0-2.92,.02-4.37,.03-.46-.1-.94-.04-1.37,.17-1.59-.01-3.18,.17-4.72,.56,1.8,.45,3.64,.68,5.49,.71,1.78,.04,3.56-.21,5.26-.74h0Zm8.35-33.49s-.01,0-.02,0c.25-.2,.21-.49,.2-.76-.25-4.17-.5-8.34-.76-12.5-.05-.82-.14-1.63-.22-2.44h-.39c-.4,2.09-1.12,4.23-.8,6.32,.48,3.16,.72,6.4,1.99,9.4h0Zm7.19,51.04c-.02-.24-.04-.47-.07-.82-.1,.36-.2,.61,.1,.79-.05,.72,0,1.45,.15,2.16,.98,5.36,1.98,10.72,2.86,16.1,.58,3.23,1.6,6.37,3.02,9.33l.06,.51s.12-.07,.12-.1c0-.16,.05-.36-.2-.39,.07-.54,.05-1.09-.08-1.62-1.06-6.3-2.5-12.52-4.04-18.71-.47-2.47-1.1-4.89-1.91-7.27v.02ZM25.43,187.79c.37-.8,.56-1.68,.58-2.56,.5-3.05,1.23-6.19,.82-9.2-.6-4.35-1.76-8.63-2.47-12.98-.87,8.25-.51,16.59,1.07,24.74h0Zm1.65,5.39c1.11-4.15,1.94-8.13,2.61-12.13,.21-1.25,.33-2.52,.58-3.77,.24-1.2,.23-2.44-.03-3.64-.25-1.18-.43-2.38-.64-3.57-.47,2.09-.77,4.21-.91,6.35-.05,1.24-1,2.03-1.12,3.1-.29,3.35-.77,6.68-1.44,9.97-.32,1.4,.26,2.39,.95,3.68h0ZM92.95,97.41c0,.12,0,.24,0,.37,2.03,.27,4.11,.99,6.07,.73,4.03-.52,8-1.55,12.09-2.39-1.11-.46-2.28-.75-3.48-.87-2.05-.33-4.16-1.08-6.2-.59-2.88,.7-5.66,1.81-8.48,2.75h0Zm10.5,3.67c-1.41-.61-2.87-1.08-4.36-1.42-.82-.3-1.73-.09-2.34,.53-1.19,1.71-3.42,2.04-4.64,3.68-.14,.19-.73,.03-.48,.61,.16,.39,.38,.58,.83,.46,3.79-.89,7.48-2.19,11-3.87h-.01Zm-97.37-1.14c.18,.12,.25,.2,.33,.21,5.29,.67,10.61,1.02,15.94,1.04,.86,0,.91-.5,.94-1.14,.03-.83-.41-.91-1.1-.9-3.69,.06-7.38,.12-11.07,.07-1.71-.07-3.41,.18-5.03,.72h-.01ZM29.02,48.98c-.8,4.31-1.06,8.71-.79,13.09,0,.19-.15,.57,.21,.49,1.03-.22,.73,.52,.75,.99,.03,.85,0,1.71,0,2.74,2.05-5.88,1.34-11.55-.18-17.31h.01Zm2.3,4.7c.45-.32,.1-.98,.72-.96,.36,0,.39,.3,.44,.57,.08,.39-.18,1.12,.55,.96,.45-.1,.31-.77,.25-1.19-.34-2.65-.85-5.28-1.54-7.87-.27-1.33-.67-2.63-1.18-3.88-2.08,4.3,.1,8.22,.75,12.37h0Zm53.51,96.43c.21-3.93,.42-7.87-1.03-11.67-.31-.94-.56-1.91-.76-2.88-.57-2.25-1.13-4.49-1.7-6.74,.51,7.19,1.68,14.32,3.49,21.3h0Zm-43.92-45.59c.1,.45,.31,.45,.47,.42,3.38-.69,6.81-1.04,10.23-1.43,1.73-.28,3.34-1.08,4.61-2.29-5.21,.52-10.34,1.63-15.3,3.3h0Zm53.75,12.22c.11-.06,.21-.11,.32-.17-.91-2.69-1.79-5.39-2.73-8.08-.8-2.29-.83-2.28-3.24-1.82-.06,.01-.11,.12-.22,.25,1.73,3.4,3.69,6.68,5.87,9.81h0Zm-59.87-.21c-.63,7.41-1.12,14.48,.72,21.47,.03-7.05-.19-14.09-.72-21.47h0Zm1.88-6.14c5.53,.69,11.15,.27,16.52-1.24-5.46,.41-11.06-1.2-16.52,1.24Zm-12.97,45.82c-1.54,7.47-1.88,19.13-.02,26.41-.03-.65-.03-1.1-.08-1.55-.71-6.34-.7-12.74,.02-19.08,.22-1.91,.75-3.82,.08-5.77h0Zm28.2-50.94c5.9-.23,11.75-1.12,17.45-2.65-5.92-.08-11.82,.81-17.45,2.65h0Zm12.06,.49c-5.79,.78-11.58,1.17-17.39,1.38-.46,0-.9,.22-1.19,.57,5.28,.1,10.4-.12,15.53-.3,1.24-.04,2.64,.2,3.05-1.65h0Zm-11.14,4.66c7.97-.23,15.91-1.06,23.76-2.46-3.97,.44-7.94,.88-11.92,.98-3.99-.03-7.98,.47-11.84,1.48h0Zm44.29,62.68c-.22-1.06-.42-2.13-.65-3.19-.39-1.77-.78-3.55-1.21-5.31-.08-.32-.12-.73-.62-.79-.31-.04-.42,.09-.44,.34-.13,1.86-.89,3.73,.32,5.55,.71,1.24,1.58,2.38,2.59,3.4h0Zm-10.99-25.12c-.62,4.87,.48,9.81,3.13,13.95-1.04-4.65-2.08-9.3-3.13-13.95h0Zm-14.1-106.96c-.51,5.28-.65,10.6-.42,15.9,.64-.31,.54-.61,.55-.86,.02-2.87,.2-5.73,.52-8.58,.25-2.11,.73-4.23-.65-6.46h0Zm-23.03,57.1c-4.27,.15-8.54,.3-12.81,.44-.14,0-.27,.02-.41,.02-.36,0-.61,.1-.61,.53,0,.51,.35,.44,.66,.44,1.69-.01,3.37-.03,5.06-.05,2.76,.02,5.51-.44,8.11-1.38h0Zm24.65-51.18c-.87,4.51-.49,9.82,.9,12.28,0-2.8,.09-5.47-.04-8.12-.17-1.41-.46-2.8-.86-4.16h0ZM33.54,123.45c.17-3.4,.35-6.8,.49-10.21,.02-.44,.4-1.12-.58-1.2s-.83,.59-.88,1.14c-.37,3.48,.41,6.86,.98,10.26h-.01Zm-1.07,38.08c.08,2.53,1.28,4.56,2.36,6.66,.09-2.99,.41-5.98-.38-8.92-.16,.69-.27,1.39-.32,2.09-.09,.6,.32,1.56-.33,1.73-.82,.22-.58-.92-.99-1.34-.11-.08-.22-.15-.34-.21h0Zm1.54-102.82c-.8,2.05-.6,11.11,.35,15.41,.17-5.14,.05-10.28-.35-15.41h0Zm1.01,90.68c-.06-4.7-.45-9.4-1.15-14.05-.76,4.77,.65,9.37,1.15,14.05Zm-17.85-44.09c-.06,.11-.12,.22-.19,.33,.17,.07,.33,.14,.49,.23,1.63,.95,3.46,.29,5.16,.61,.24,.04,.31-.27,.33-.5s.01-.46-.3-.47-.7,.05-.7-.4c0-.41,.43-.4,.69-.54,.22-.12,.54-.18,.36-.69-1.94,.48-3.89,.96-5.84,1.45v-.02Zm7.86,34.49c-.18-4.83,.3-9.69-.28-14.53-.65,4.83-.56,9.73,.28,14.53Zm5.75-66.56c-.04-4.06,.77-7.88,.6-12.01-1.41,3.53-1.78,10.31-.6,12.01Zm6.66,83.19c.16-3.36-.17-6.73-.99-10,.19,3.27-1.19,6.68,.99,10Zm54.38,.68c-.24,2.76,.71,5.28,1.32,7.85,.26-2.69,1.29-5.49-1.32-7.85Zm-7.96-68.81c-.07,.03-.15,.06-.22,.09,.17,1.76,.33,3.52,.5,5.28,.02,.25-.07,.6,.33,.63,.59,.09,1.19,0,1.73-.25,.4-.23-.03-.58-.13-.82-.71-1.65-1.46-3.28-2.2-4.92h0ZM25.76,154.81c-1.44,3.61,.1,6.47,1.01,9.42-.12-3.16-.45-6.31-1.01-9.42h0Zm39.17-46.92c3.61,.05,7.21-.2,10.77-.77,.32-.04,.77,0,.65-.59-.11-.5-.4-.46-.82-.36-3.49,.78-7.03,1.28-10.6,1.72h0Zm18.05-14.5c-.34-3.48-.17-7.03-1.58-10.34,.13,3.5,.66,6.96,1.58,10.34h0Zm-3.53,16.93c.19,4.09,1.18,8.11,2.93,11.81-.98-3.94-1.96-7.88-2.93-11.81h0Zm15.06-10.81c-1.39-1.2-2.82-.9-4.14-1.06-.37-.05-.99,.02-.88,.51,.12,.52,.12,1.45,1,1.35,1.29-.15,2.55-.49,4.03-.79h0ZM11.57,114.77c3.69-.46,7.34-1.17,10.93-2.11-3.66,.61-7.47,.37-10.93,2.11Zm40.09-15.97c3.61,.49,6.98-.84,10.45-1.42-3.52,.14-7.02,.62-10.45,1.42Zm-39.24,5.33c-1.99,.2-3.82,.38-5.64,.58-.72,.08-1.43,.22-2.38,.37,5.06,.73,5.67,.66,8.02-.95h0Zm27.82,1.71c3.34,.54,6.77,.07,9.84-1.35,0,0-9.84,1.35-9.84,1.35Zm-25.93-7.57h8.17c.3,0,.73,.08,.72-.39-.01-.49-.46-.32-.74-.31-2.73,.05-5.45,.29-8.15,.7h0Zm11.27,65.88c.26,2.54,.72,5.07,1.37,7.54,.45-2.6-.04-5.27-1.37-7.54Zm54.56-69.5l.5-.06c-.6-3.27-.58-6.64-1.78-9.8,.15,1.67,.4,3.33,.63,4.99,.23,1.63,.43,3.25,.65,4.88h0Zm11.35,55.81c-.25,3.39,.36,5.42,2,7.08-.68-2.43-1.34-4.76-2-7.08h0Zm-58.68,2.5c.19,2.36-.57,4.78,.53,7.05,.15-2.38,.53-4.78-.53-7.05h0Zm9.31-51.2c-1.4,.08-2.53,.11-3.66,.21-.95,.05-1.89,.2-2.81,.45-.38,.11-.53,.28-.5,.65,.04,.44,.33,.33,.59,.26,2.15-.41,4.28-.93,6.38-1.57Zm53.18-1.54c-1.52,.3-3.05,.6-4.57,.91-.16,.01-.28,.15-.27,.31,0,.08,.04,.15,.1,.2,.44,.4,.77,1.05,1.58,.68,1.19-.46,2.26-1.18,3.15-2.1h.01Zm-18.43-21.45c.39,3.94,.98,7.85,1.76,11.72-.37-3.94-.96-7.85-1.76-11.72ZM24.02,148.84c.84-2.61,.39-5.15-.22-7.69-.15,2.56-.08,5.14,.22,7.69Zm7.43,12.8h-.45v8.32c.32-2.77,.95-5.53,.45-8.33h0Zm.73-72.73h-.43c0,2.61-.53,5.19-.36,7.8,.14,0,.28,.01,.42,.02,.13-2.61,.25-5.21,.38-7.82h0Zm64.4,6.31c-2.15,.19-4.27,.64-6.32,1.33,2.38,.89,4.2-.92,6.32-1.33ZM27.33,137.14v-10.3c-.39,3.42-.39,6.88,0,10.3Zm5.54-4.51c.71-2.83,.02-5.36-.31-7.91-.21,2.64-.1,5.29,.31,7.91ZM76.44,63.51c.61,3.27,1.22,6.55,1.84,9.82-.18-3.34-.8-6.64-1.84-9.82h0Zm14.5,82.18l2.28,7.89c-.27-2.75-1.04-5.42-2.28-7.89h0Zm-17.85-87.36c.03,2.07-.05,4.16,1.39,6.32-.29-2.14-.75-4.26-1.39-6.32h0Zm-3.25,47.43c-1.9-.3-3.81-.64-5.47,1.27,1.99-.46,3.73-.87,5.47-1.27Zm-2.77-7.34l-.04-.37c-2.16-.14-4.32,.22-6.31,1.07,2.12-.24,4.24-.47,6.35-.71h0Zm-5.18,3.42c-1.57-.12-3.27-.92-4.59,.99,1.56-.16,3.1-.49,4.59-.99Zm26.28-5.85l5.71-1.23c-1.99-.44-4.08,0-5.71,1.23Zm-2.17,28.51c-.02-2.31-.35-4.61-.96-6.84-.02,2.31,.3,4.62,.96,6.84Zm-8.86-50.75c.33,2.06,.34,4.2,1.23,6.16-.07-2.11-.48-4.19-1.23-6.16Zm-51.28,17.16c-.57,1.86-.57,3.86,0,5.72v-5.72Zm62.72,14.95c.75-.16,1.33-.26,1.9-.4,.32-.08,.62-.2,.43-.65-.16-.38-.34-.61-.8-.42-.5,.21-1.02,.37-1.53,.54-.25,.08-.6,.09-.53,.47s.34,.51,.54,.46h0Zm-57.08-31.73c.19-1.98,.44-4.61,.68-7.24-.46,2.39-.69,4.81-.68,7.24Zm-1.6,22.46c.2-2,.19-4.02-.03-6.02-.17,2-.16,4.02,.03,6.02Zm-14.2,7.38c.53,.81,2.15,.66,4.05-.36-1.36-.11-2.73,.01-4.05,.36Zm14.77,45.54c.2-1.5,.18-3.01-.08-4.5-.65,1.51,0,3,.08,4.5h0Zm2.61-52.81h.42c-.13-2.07-.26-4.14-.36-5.62-.15,1.87-.17,3.74-.06,5.61h0Zm5.5,6.87l-3.04,.63c-.27,.03-.46,.27-.43,.53,0,.02,0,.04,0,.06,.07,.25,.37,.19,.59,.12,1.05-.23,2.03-.69,2.88-1.34h0Zm-26.88,2c.02,.09,.04,.18,.06,.26,.92-.22,1.84-.43,2.75-.66,.2-.05,.5-.13,.45-.4-.04-.24-.27-.4-.51-.35-.04,0-.09,.02-.13,.04-.87,.36-1.74,.73-2.61,1.1h0Zm16.57,7.43s-.07,.03-.1,.04v7.02h.1v-7.06Zm-8.78-1.02c.9,.1,1.82,.04,2.7-.18,.37-.01,.67-.24,.55-.59-.14-.44-.51-.18-.79-.09-.72,.25-1.43,.5-2.46,.86h0Zm5.77,4.56c.32-1.09,.39-2.23,.21-3.35-.39,1.07-.47,2.24-.21,3.35h0Zm44.45-18.93c1.34,.18,2.67,.65,4.01,.37v-.37h-4.01Zm-49.42,9.62c.54,.46,1.21,.73,1.92,.78,.29,.03,.69,.09,.69-.39,0-.36-.32-.38-.59-.39h-2.02Zm55.19-50.6c.09,1.03-.7,2.18,.43,3.15,.25-1.17-.28-2.15-.43-3.15h0Zm11.13,48.91c-.43,.31-1.24,.04-1.56,.72-.11,.24,.26,.39,.45,.28,.58-.31,1.43,.07,1.79-.66,.08-.17-.26-.45-.68-.34h0Zm-60.02,9.58c-.18,1.64-.18,3.3,0,4.94,.2-1.64,.21-3.3,0-4.94h0Zm62.03,51.54c.12,1.04,.41,2.06,.87,3,.71-1.35-.36-2.09-.87-3h0ZM26.86,77.92c-.14,1.8-.15,3.62-.01,5.42,.14-1.8,.15-3.62,.01-5.42Zm6.33,70.44c.2-1.26,.06-2.55-.4-3.74-.15,1.26-.01,2.54,.4,3.74Zm45.92-70.11c.18,1.17,.36,2.35,.56,3.7,.1-1.26-.09-2.53-.56-3.7Zm1.94-.3c-.27,1.09-.04,2.25,.62,3.16-.24-1.25-.43-2.21-.62-3.16ZM26.55,144.88c.22-1.04,.16-2.11-.18-3.12,.06,1.07,.12,2.09,.18,3.12Zm50.36-53.45s-.09,.04-.14,.07c.14,.84,.28,1.68,.42,2.53l.33-.08-.62-2.51h0Zm-51.21,7.4c-.35,.45-.43,1.06-.2,1.59,.04,.16,.35,.15,.43-.04,.24-.52,.15-1.12-.23-1.55h0Zm-.86,52.28v2.94c.45-1.12,.65-1.97,0-2.94h0Zm54.43-80.2c.15,.81,.3,1.61,.4,2.18,.09-.75-.05-1.51-.4-2.18h0Zm-4.8,1.52c.21-.86,.07-1.76-.37-2.52-.05,.86,.08,1.71,.37,2.52h0Zm-35.14,30.95c-.07,0-.15,0-.22,.02,.03,.03,.06,.05,.1,.06,.04,0,.08,0,.11-.02v-.05h.01Zm-13.86,60.52c.02-.08,.03-.16,.03-.24-.02,.01-.05,.02-.05,.04,0,.07,0,.13,.02,.2h0Z"/>
  <path id="Path_3" data-name="Path 3" class="cls-1" d="M226.4,161.41c.14,1.21,.28,2.43,.4,3.64,.02,.25,.14,.58-.22,.7-.39,.13-.56-.12-.69-.46-.15-.38-.34-.74-.51-1.11-1.45-3.37-3.17-6.62-5.14-9.72-3.89-5.84-5.85-12.5-7.08-19.32-1.95-10.82-5.55-21.14-9.09-31.49-.02-.06-.12-.1-.53-.41,0,4.43,.02,8.59,0,12.75-.07,9.43,.1,18.86,.6,28.28,.31,5.73,.77,11.45,1.49,17.14,.05,.36,.35,.91-.21,1.06-.71,.19-.64-.53-.72-.89-.46-2.1-.86-4.21-1.3-6.38-.54,.32-.36,.72-.36,1.04-.04,4.05-.42,8.09-1.15,12.08-.04,.22-.09,.44-.16,.66-.11,.32,.04,.84-.48,.86-.6,.02-.47-.58-.6-.91-.09-.62-.29-1.23-.59-1.78-.11,2.3-.38,4.59-.81,6.85-.06,.29,.02,.72-.43,.74-.42,.03-.43-.36-.56-.65-.27-.59-.2-1.32-.84-1.99-.16,1.46-.3,2.75-.45,4.03-.05,.41-.11,.81-.19,1.21-.06,.3-.04,.73-.5,.65-.36-.07-.4-.43-.39-.77,0-1.14-.06-2.28,0-3.42,.22-4.16-.21-8.32-1.26-12.35-.58,.5-.43,1.28-.64,1.91-.43,1.29-.74,2.62-1.11,3.93-.11,.38-.11,.92-.64,.9-.59-.02-.43-.59-.5-.96-1.3-7.49-1.97-15.08-1.98-22.69,0-11.21,.74-22.4,2.22-33.51,.54-4.26,.08-8.56,.31-12.83,.17-5.87,1.06-11.7,2.67-17.35,.53-1.81,.89-3.66,1.08-5.53,.31-1.9-.04-3.85-1-5.52-.48,2.51-.93,4.79-1.36,7.07-1.89,10.25-3.48,20.54-4.58,30.9-1.28,11.41-1.73,22.9-1.35,34.38,.15,3.86,.77,7.7,.83,11.58,0,.27,.02,.55,.02,.82s-.04,.61-.35,.65c-.4,.05-.53-.28-.56-.62-.1-1-.21-1.99-.28-2.99-.32-4.63-.66-9.26-1.03-13.89-.13-1.61,.39-3.45,.4-5.2,.18-12.3,1.18-24.56,2.97-36.73,1.28-9.1,2.83-18.15,4.65-27.15,.12-.58,.08-1.18-.1-1.74-.96-3.22-1.76-6.49-2.39-9.79-.07-.37-.22-.78,.21-.95,.5-.19,.56,.34,.7,.64,.53,1.13,1.02,2.27,1.63,3.37,.04-3.51-.33-6.98-.23-10.47v-.96c0-.29,0-.58,.33-.67,.42-.11,.52,.24,.67,.52,1.28,2.54,2.79,4.96,3.97,7.72,.68-1.49,.95-3.14,.78-4.77,0-.49-.34-1.36,.82-.95,.37,.13,.31-.35,.39-.55,.64-1.55,1.22-3.13,1.88-4.67,.17-.66,.23-1.33,.18-2.01,.04-.35-.31-.94,.35-.98,.63-.04,.47,.55,.48,.92,.1,2.59,.21,5.19,.27,7.78,.05,2.05-.18,4.13,.07,6.15,.42,3.37-.26,6.7-.06,10.04,0,.82,.22,1.62,.66,2.31,7.32,10.39,12.76,21.75,17.39,33.54,.11,.28,.25,.56,.54,1.22,.3-1.29,.37-2.63,.19-3.94-1.08-5.86-2.09-11.73-2.81-17.64-1.44-11.74-1.55-23.43,1.28-35.01,.04-.18,.13-.34,.17-.52,.09-.34,.06-.81,.56-.8s.49,.51,.54,.83c.5,3.05,.99,6.1,1.43,9.16,.24,1.65,.39,3.32,.63,5.35,.63-4.25,1.2-8.12,1.77-11.98,.06-.38-.06-.99,.5-.96,.59,.03,.36,.61,.37,.99,.07,2.46-.24,5,.3,7.35,.53,2.29-.05,4.5,.32,6.8,.27-.64,.44-1.32,.5-2.01,1.94-6.57,.92-13.3,1.02-19.95,.13-8.47-.11-16.95,.3-25.42,.02-.36-.24-.95,.36-1.02,.77-.09,.49,.63,.55,.99,.73,5.32,1.11,10.69,1.16,16.06,.21,10.44-.5,20.85-1.15,31.26-.06,.91,0,1.82,.19,2.71,.35-2.83,.74-5.66,1.06-8.5,.79-7.01,1.57-14.02,2.33-21.03,.7-6.42,1.33-12.86,2.1-19.28,.68-5.64,1.49-11.27,2.27-16.9,.05-.33-.02-.99,.6-.84,.55,.13,.29,.65,.24,1.04-1.16,9.21-2.21,18.43-3.16,27.67-.66,6.43-1.53,12.84-2.05,19.28-.69,8.58-1.02,17.18-1.28,25.79-.26,8.43-.17,16.86-.12,25.29,0,.37-.39,1.08,.62,.95,.5-.07,.41,.48,.43,.83,.37,6.96,.71,13.92,1.13,20.88,.51,8.37,.93,16.74,.9,25.13,0,.55,.06,1.09,.15,1.63,.4,2.34-.22,4.64-.41,6.94-.24,3.58,.02,7.18,.76,10.69,.29,1.47,.45,2.97,.66,4.45,.04,.3,.18,.68-.22,.83-.5,.2-.61-.27-.77-.56-.45-.82-.87-1.65-1.35-2.57-.95,2.8-1.89,11.84-1.55,14.92,.26-.64,.45-1.13,.64-1.61,.07-.23,.31-.36,.54-.29,.28,.06,.35,.26,.28,.51-.46,1.65-1.32,3.17-1.68,4.86-.02,.1-.3,.23-.43,.2-.15-.07-.27-.21-.32-.37-1.84-6.38-3.5-12.81-3.76-19.48-.09-2.24-1.27-3.86-2.05-5.73-.11,.03-.21,.07-.32,.1h.03Zm-32.51-99.51c.13-.18,.08-.42-.09-.55-.01,0-.02-.02-.04-.02,.05,.18,.1,.37,.15,.55,.3,1.2,.61,2.4,.91,3.6,.36-1.27,0-2.64-.93-3.58Zm42.14,106.4h.13s-.04-.04-.05-.04c-.04,.02-.07,.05-.11,.07,.32-1.46-.23-2.79-.57-4.15-.25,1.4-.04,2.85,.6,4.12h0Zm-42.48-38.36v2.45c-.17,.74-.12,1.52,.14,2.23,.03,.34,.06,.69,.09,1.03,.11,.66,.22,1.32,.38,2.29,.13-1.22,.07-2.44-.18-3.64-.03-1.45-.05-2.91-.08-4.36v-2.83c-.36,.9-.48,1.87-.35,2.83h0Zm-1.48-9.3c.27-1.28,.31-2.6,.09-3.89-.1,1.12-.2,2.23-.3,3.35-1.54,18.42-1.21,41.17,.71,45.55,.48-2.05,.93-3.99,1.38-5.94,.14-.76,.12-1.55-.07-2.3-.9-4.42-1.4-8.9-1.51-13.41-.18-7.78-.2-15.57-.29-23.36h-.01Zm14.57-47.16c-.12,.35-.09,.74,.1,1.07,.95,2.89,1.92,5.77,2.82,8.67,3.54,11.45,6.3,23.11,9.29,34.71,.56,1.6,1.29,3.14,2.16,4.59,.47-4.21,.96-8,1.67-11.76,.47-2.09,.27-4.28-.57-6.25-1.7-3.81-3.2-7.71-4.91-11.52-3-6.78-6.53-13.31-10.56-19.53v.02Zm16.51,21.69c.08-6.17,.31-12.31,.65-18.45,.28-5.08,.92-10.15,.27-15.26-.52-4.1-.91-8.22-1.78-12.61-3.65,15.74-1.9,31.04,.85,46.32h.01Zm-23.61,31.46c-.38,4.21-.87,8.42-1.1,12.63-.22,2.97,0,5.96,.66,8.86,.98,3.98,.88,8.21,1,12.35,.1,2.25,.48,4.48,1.13,6.64,2.32-13.8,.03-27.11-1.69-40.49h0Zm2.7-28.6c-2.44,7.64-1.47,41.94,1.48,52.85-.23-3.83-.53-7.68-.67-11.54-.43-11.83-.48-23.66-.15-35.49,.06-1.95,.38-3.96-.66-5.81h0Zm2.18-25.21c-.02,.26-.03,.51-.06,.77-.49,5.57,1.16,10.9,1.93,16.32,.02,.16-.11,.53,.28,.42,.94-.26,.8,.51,.92,.96,.9,3.33,1.75,6.67,2.65,9.99,.16,.89,.55,1.73,1.13,2.42-1.27-10.51-5.3-20.42-6.86-30.89h0Zm9.76,38.84c1.77,6.89,3.9,13.69,6.4,20.35,.02-7.47-2.45-14.15-6.4-20.35h0Zm-5.65-28.51c1.16,8.62,3.45,17.06,6.81,25.08-1.87-8.46-4.12-16.82-6.81-25.08h0Zm-5.3-35.89c-.82,1.94-1.88,3.6-1.77,5.25,.14,2.07,.03,4.13,.16,6.19,0,.18-.02,.5,.04,.52,1.51,.5,.4,1.55,.5,2.33,.04,.34-.32,.69,.12,1.1,.27-.22,.05-1.01,.77-.77,.51,.17,.46-.29,.47-.58,.06-4.56,.06-9.12-.27-14.04h-.02Zm30.63,95.31c-1.4,4.93-.78,9.75,1.16,14.64,.5-5.1,.55-9.98-1.16-14.64h0Zm-19.04-8.18c2.43,8.05,5.43,15.92,8.99,23.54-.14-1.77-.52-3.52-1.14-5.19-2.66-6.11-5.32-12.22-7.85-18.35h0Zm12.15-36.25c-1.56,6.07-2.1,12.11,.45,18.06-.1-6.02-.42-12.04-.45-18.06h0Zm-22.87-3.62c1.58,7.26,3.18,14.52,5.38,21.64-.59-7.46-2.41-14.77-5.38-21.64h0Zm14.87,39.41c.13-.05,.25-.1,.38-.15-3.2-9.54-6.4-19.08-9.6-28.63l-.36,.12c2.63,9.74,6.32,19.14,9.59,28.67h-.01Zm-25.64-32.92c.49-3.03,.94-6.07,1.47-9.1,.42-3.09,.66-6.2,.69-9.31-1.6,6-2.33,12.2-2.15,18.41h-.01Zm33.68,30.41c.9-5.43-.1-10.72-1.21-16.01,.05,5.36,.45,10.71,1.21,16.01h0Zm4-83.73c.29-7.83,.67-15.65-.25-23.46-.41,7.83,.11,15.64,.25,23.46h0Zm-32.95,103.43c-1.22,5.13,.09,9.67,1.09,14.23,.41-4.68-.89-9.22-1.09-14.23Zm35.5-45.55c.04,9.08,.65,18.12,1.2,27.17,.13,0,.25-.01,.38-.02-.53-9.05-1.06-18.1-1.58-27.15h0Zm-35.13,7.94c-.23,5.76-.4,11.97-.3,18.59,.9-6.59,1.36-12.8,.3-18.59h0Zm33.82-32.89c.17-5.86,.34-11.72,.51-17.85-1.74,6.08-1.25,11.96-.51,17.85h0Zm-2.38,87.68c-.2,2.89,1.44,11.76,2.29,12.92,.25-4.33-.82-8.54-2.29-12.92h0Zm3.08-48.2c-.2,5.23-.14,10.47,.18,15.69,.59-5.22,.53-10.49-.18-15.69h0Zm-1.09-24.06c.07-5.19-.31-11.12-.82-17.05-.25,5.96-.21,11.91,.82,17.05h0Zm-32.18,19.64v-19.79c-.67,6.59-.82,13.22,0,19.79h0Zm14.59,12.69c-1.43-5.11-2.78-10.23-4.06-15.35,.77,5.27,1.38,10.58,4.06,15.35h0Zm-20.49,12.53c0,4.45,.33,8.89,.98,13.29-.25-4.44,.61-8.95-.98-13.29h0Zm32.91-66.72c-.57,4.55-1.24,9.09-.87,13.69,.92-4.5,1.22-9.11,.87-13.69h0Zm-30.88,43.08c.14-4.2,1-8.37,.54-12.59-.94,4.13-1.13,8.4-.54,12.59h0Zm29.36,13.25c-.37-3.71-.74-7.42-1.12-11.12l-.33,.03c.41,3.7-.75,7.57,1.45,11.08h0Zm-2.48-15.25c-.53,2.77-.87,5.58-1.02,8.4,.12,.53,.33,1.04,.64,1.49,.49-3.27,.62-6.59,.39-9.89h-.01Zm6.5-31.27c-.9,4.52,.15,9,.23,13.5,.19-4.5,.11-9.01-.23-13.5h0Zm-31.21,80.58c-.55,2.44-.28,4.99,.75,7.27,.23-1.27,.26-2.56,.5-3.82,.28-1.46-1.55-2.03-1.25-3.45h0Zm2.63-71.82v11.61c.05-3.88,1.59-7.77,0-11.61h0Zm29.64,66.51c.28,.83-1.11,.67-.86,1.47,.5,1.83,1.17,3.61,2,5.31-.63-2.2,.47-4.66-1.14-6.78h0Zm-.63-25.63c.7-2.85,.53-5.85-.49-8.6-.13,2.88,.04,5.76,.49,8.6h0Zm-33.83-72.02c.47-3.18,.29-6.42-.51-9.53-.07,3.18,.11,6.37,.51,9.53Zm24.05,89.72c-1.37-3.73-2.74-7.47-4.1-11.2,.75,3.93,2.13,7.71,4.1,11.2h0Zm-7.69-48.92c.11,2.84,1.03,5.6,2.65,7.94-.71-2.7-1.6-5.35-2.65-7.94Zm9.16,28.71c.23,2.56,.03,4.89,1.36,7.21-.27-2.51-.08-4.84-1.36-7.21Zm4.59,11.64c.32-2.32-.15-4.67-1.33-6.69,0,2.3,.45,4.57,1.33,6.69Zm-29.32-16.48c-.03,1.96-.4,3.89-.28,5.86,.12,1.89,.03,3.8,.03,5.69h.34c.03-3.86,.21-7.71-.09-11.55h0Zm37.15,30.25c.1,2.08-.07,4.2,.88,6.33,.56-2.35-.26-4.33-.88-6.33h0Zm-40.22-50.16c.58-2.54,1-5.12,1.24-7.72-.03,.02-.05,.03-.12,.08-.56,2.52-.93,5.07-1.12,7.64h0Zm39.98,59.42v4.94c.23-1.65,1.22-3.28,0-4.94Zm-31.89-73.78c0-1.94-.31-3.87-.9-5.72-.25,1.95,.06,3.94,.9,5.72h0Zm27.57-26.49c-.14,1.59-.65,3.16-.36,5.03,.86-1.77,.56-3.4,.36-5.03h0Zm-4.64,18.61c-.2-2.86,.46-5.69,.24-8.88-.13,3.18-.59,6.02-.24,8.88h0Zm1.04,51.51c-.12-2.3-.51-3.41-1.51-4.45,.21,1.57,.72,3.08,1.51,4.45h0Zm6.79,33.97c.05-2.24,.69-4.54-.35-6.71,.12,2.24,.23,4.48,.35,6.71h0Zm-30.02-96.16c-.92,1.53,.04,2.88,.26,4.28,.34-1.42,.25-2.91-.26-4.28h0Zm26.25,42.15c.06-2.27,.45-4.9-.16-7.11,.11,2.23-.21,4.86,.16,7.11Zm-24.25-32.1c-.27,1.62,.03,3.29,.86,4.71-.29-1.57-.57-3.14-.86-4.71Zm-4.41-17.56c.26-1.43,.03-2.9-.67-4.18-.29,1.62,.37,2.87,.67,4.18h0Zm26.49,2.56c.13-1.02,.31-2.04,.38-3.07s.01-2.05,.01-3.08c-.41,2.02-.54,4.09-.39,6.15h0Zm6.48,69.89c-.23,1.14-.25,2.31-.05,3.46,.3-1.13,.32-2.32,.05-3.46h0Zm1.82,2.9c-.12-1.45-.24-2.91-.36-4.46-.49,1.47-.36,3.08,.36,4.46h0Zm-8.5-48.64c.63-1.44,.77-3.05,.41-4.58-.15,1.64-.28,3.11-.41,4.58h0Zm4.25,42.92c-.42,1.03-.6,2.14-.53,3.25,.4-1.04,.58-2.14,.53-3.25h0Zm-27.3-66.73c-.23,1.18-.74,2.05-.21,3.24,.25-1.06,.32-2.16,.21-3.24h0Zm25.36,10.5c.21-.83,.22-1.7,.04-2.54-.39,.8-.41,1.73-.04,2.54h0Zm-2.91,82.95c-.07-.61-.15-1.19-.22-1.77-.03-.27-.04-.56-.45-.47-.35,.08-.44,.31-.27,.6,.31,.53,.38,1.21,.94,1.65h0Zm.9-14.37c-.02,.98,.3,1.93,.92,2.69-.12-.95-.43-1.87-.92-2.69h0Zm-28.93-87.34v2.66c.74-.81,.39-1.61,0-2.66Zm29.25,84.54c.56-.89,.56-2.03,0-2.92v2.92Zm-4.48-14.53c.05-.75-.21-1.49-.71-2.06,.1,.73,.34,1.43,.71,2.06Zm-29.09-22.24c.12-.34,.12-.72,0-1.06v1.06Zm-.27-6.59l.06-.1-.05-.02v.12h0Zm16.4,2.86l.04-.11h-.04v.11Zm12.09,23.08s-.02,.07-.02,.1c-.01-.04-.03-.09-.04-.13l.06,.03Z"/>
  <path id="Path_4" data-name="Path 4" class="cls-1" d="M298.23,66.45c-1.13,.36-2.31,.53-3.49,.53-.83,0-1-.34-.5-.98,.66-.85,1.34-1.69,2.13-2.7-2.61,.35-5.01,.74-7.43,.97-3.42,.32-6.83,.98-10.3,.65-.41,.03-.81,.14-1.17,.33-9.58,3.41-19.16,6.82-28.73,10.24-.17,.06-.35,.11-.52,.18-.33,.12-.73,.38-.91-.14-.13-.39,.27-.54,.55-.66,5.73-2.42,10.93-5.96,16.82-8.05,.24-.08,.55-.12,.61-.6-1.84,.23-3.66,.59-5.45,1.09-3.32,1.09-6.64,2.17-9.97,3.23-.42,.14-1.02,.46-1.23,0-.3-.66,.49-.74,.88-.95,1.19-.62,2.42-1.17,3.82-1.85-2.35-.21-4.49-.39-6.63-.59-.48-.04-1.19,.07-1.28-.49-.1-.63,.64-.78,1.12-1,1.08-.34,2.19-.57,3.32-.7,.26-.06,.59-.1,.65,.28,.08,.43-.23,.51-.58,.57-.68,.09-1.35,.26-1.99,.5,3.95,.51,7.89,1,11.83-1.03-.77-.06-1.55-.02-2.31,.14-.72,.12-1.44,.19-2.17,.25-.35,.03-.89,.4-1.02-.23-.13-.65,.49-.54,.84-.58,3.08-.34,6.16-.62,9.23-1,2.95-.45,5.86-1.13,8.71-2.04-1.36-.08-2.73,0-4.07,.26-6.62,.5-13.2,1.69-19.88,1.24-.14,0-.27,0-.41-.02-.5-.09-1.32,.19-1.39-.48s.79-.59,1.26-.76c2.2-.96,4.49-1.73,6.83-2.28-.55-.31-1.19-.42-1.81-.33-1.95,.18-3.9,.39-5.85,.55-.36,.03-.96,.29-1.05-.24-.12-.71,.57-.55,.97-.58,7.4-.56,14.74-1.66,22.07-2.72,3.72-.53,7.35-1.65,11.07-2.29,4.96-.96,10.01-1.45,15.06-1.48,2.66,.04,5.04-1.11,7.59-1.5,1.84-.28,3.66-.7,5.5-.97,.53-.06,1.02-.34,1.34-.77,1.15-1.41,2.33-2.8,3.52-4.18,.22-.25,.42-.69,.87-.45,.47,.26,.15,.65,.06,.97-.24,.83-.52,1.64-.79,2.46-.33,.99,.13,1.41,1.06,1.46,.82,.05,1.64,.03,2.46,.06,.23,0,.48,.06,.54,.32,.08,.33-.17,.5-.43,.6-.53,.25-1.1,.43-1.68,.54-1,.09-.38,.73-.37,1.06,0,.66,.39,.22,.68,.16,1.15-.25,2.31-.45,3.47-.68,.3-.06,.67-.25,.81,.19,.16,.54-.31,.57-.65,.66-1.58,.4-3.18,.77-4.76,1.18-.42,.11-1.03,.22-.91,.8,.11,.52,.69,.24,1.04,.23,2.69-.13,5.38,.05,8.03,.51,.4,.08,1.06-.15,1.07,.53,0,.58-.63,.55-1.03,.71-3.49,1.31-7.06,2.36-10.7,3.16-.72,.1-1.33,.59-1.57,1.28-.37,.88-.8,1.73-1.21,2.59-.81,1.72-.83,1.73,.5,3.27,.42,.49,.06,.76-.18,1.04-1.06,1.37-1.86,2.92-2.37,4.57-.06,.2-.23,.53-.16,.58,.26,.23,.33-.13,.48-.24,.38-.32,.74-.67,1.15-.97,.33-.24,.63-.91,1.1-.5,.5,.44-.12,.8-.38,1.11-1.2,1.43-2.39,2.88-3.66,4.25-2.62,2.82-4.4,6.24-6.72,9.28-1.83,2.4-3.73,4.76-5.54,7.17-.92,1.18-1.89,2.31-2.92,3.39-5.34,5.7-8,12.92-11.37,19.75-2.41,4.89-4.23,10.04-6.81,14.84-.29,.62-.63,1.21-1.02,1.77-3.89,5.07-6.06,11.19-9.94,16.25-.07,.09-.05,.24-.1,.51,2.58-.8,5-1.95,7.59-2.21,4.25-.43,7.85-2.77,11.89-3.78,4.11-.99,8.31-1.61,12.53-1.85,.5-.02,.99-.11,1.46-.28,7.7-2.98,15.92-4.38,24.17-4.14,1.13-.1,2.25-.28,3.35-.53,.32-.03,.8-.26,.88,.3,.06,.4-.35,.46-.65,.56-1.8,.63-3.59,1.27-5.39,1.92-.36,.05-.62,.37-.59,.73,1.41-.45,2.74-.93,4.09-1.29,.6-.16,1.5-.87,1.82-.1,.29,.71-.88,.78-1.36,1.2-.6,.53-1.72,.48-1.79,1.61,0,.08-.21,.22-.31,.21-2.23-.13-3.83,1.49-5.81,2.09-1.63,.5-3.23,1.12-4.86,1.71,1.53,0,3.08,.23,4.51-.58,.15-.09,.37-.23,.49-.18,2.75,1.03,5.61,.13,8.41,.5,2.7,.36,5.42,.58,8.1,1.15,.36,.08,.79,.09,.91,.47,.13,.42-.31,.62-.57,.84-2.52,1.89-5.51,3.06-8.65,3.37-2.03,.32-4.08,.46-6.13,.4-5.72-.2-11.2,1.12-16.73,2.19-7.24,1.4-14.53,2.47-21.84,3.37-4.77,.59-9.28,2.15-13.93,3.18-2.22,.49-4.42,1.06-6.65,1.47-1.03,.11-1.97,.65-2.59,1.49-1.17,1.46-2.51,2.78-3.98,3.93-.23,.2-.44,.53-.81,.36-.47-.21-.26-.61-.21-.96,.08-.58,.17-1.16,.28-1.9-.99,.46-1.51,1.29-2.27,1.79-.32,.21-.6,.75-1.03,.41-.36-.28-.1-.77-.01-1.15,.15-.38,.27-.76,.36-1.16,0-.49,.99-1.29-.37-1.48-.18-.03-.21-.44-.01-.59,.83-.64,.73-1.68,1.21-2.42-.4-.55-1.1,.5-1.28-.32-.15-.65,.57-.71,.94-.99,.22-.16,.46-.28,.69-.43,.38-.19,.58-.62,.48-1.03-.16-.38-.65-.12-.99-.09-.54,.05-1.08,.18-1.62,.24-.3,.04-.7,.15-.83-.24s.26-.51,.54-.65c.62-.28,1.22-.6,1.8-.97-1.17-.06-2.34,.11-3.45,.51-1.15,.31-1.97-.64-3.03-.53-.18,.02-.31-.2-.26-.4,.09-.38,.42-.43,.73-.5,2.48-.55,4.96-1.13,7.45-1.62,.58-.06,1.06-.48,1.19-1.05,2.26-6.23,3.73-12.71,5.92-18.96,.04-.28,.06-.57,.05-.85-2.58,3.53-4.96,6.79-7.34,10.05-.54,.74-1.01,1.52-1.6,2.21-.33,.39-.5,1.38-1.2,.92-.63-.41,.16-.96,.39-1.35,3.11-5.18,6.16-10.4,9.42-15.49,3.93-6.12,7.45-12.48,11.22-18.7,.61-1.22,1.4-2.35,2.33-3.35,4.3-3.83,6.85-9,10.41-13.4,3.58-4.43,7.02-8.97,10.72-13.29,.68-.79,1.26-1.66,1.72-2.6,1.94-3.76,4.21-7.34,6.8-10.69,.13-.11,.36-.23,.22-.39-.17-.19-.4-.02-.59,.09h.03Zm12.39,74.47c.24,.11,.53,.08,.74-.08-.3-.2-.5-.05-.71,.11l-.9,.16c-.11,.11-.22,.21-.33,.32,.08,.01,.16,.02,.24,.02,.27-.06,.19-.2,.09-.34,.36,.24,.69,.38,.87-.19h0Zm-44.54-74.66c.34-.11,.69-.21,1.23-.38-.6-.15-.94-.15-1.22,.15-.22,0-.58-.02-.54,.2,.05,.3,.35,.07,.54,.03h-.01Zm9.71,44.75c-1.02,.44-1.11,1.49-1.51,2.34-.14,.15-.27,.3-.41,.45,.07,.02,.16,.07,.21,.05,.26-.1,.24-.31,.17-.52,.96-.48,.87-1.65,1.51-2.34l.11-.49c-.06,0-.12,.02-.18,.04,.02,.16,.06,.31,.09,.47h.01Zm3.63-4c-.45,.68-.9,1.36-1.34,2.04,.08,.05,.16,.09,.24,.14,.46-.66,.93-1.31,1.39-1.97,.48-.5,.7-1.19,.61-1.88-.41,.76-.66,1.21-.9,1.66h0Zm-4.92-44.28c-.8,.13-1.61,.26-2.8,.45,.95,.26,1.96,.09,2.78-.45l.36-.09c-.11,.03-.22,.06-.34,.09h0Zm-15.8,65.95c-.95,.61-1.05,1.64-1.27,2.6,.59-.78,1.02-1.66,1.29-2.6l.02-.04-.03,.03h-.01Zm27.15-29.98l2.37-4.29c-1.26,1.13-2.09,2.65-2.36,4.31-.11-.05-.24-.21-.27,.06l.25-.08h0Zm-26.43,33.19c-.63,1.41-1.64,2.67-1.69,4.7,.51-1.84,1.87-2.97,1.67-4.68l.08,.03s-.04-.03-.06-.04h0Zm.69,25.03c-.99-.13-1.99-.09-2.96,.1-.5,.05-.74,.2-.61,.76,.14,.6,.46,.38,.8,.24,.91-.38,1.83-.75,2.74-1.13,.02-.03,.03-.07,.05-.1s.05-.04,.07-.07c-.03,.07-.07,.13-.1,.2h.01Zm27.74-69.38c2.2-2.61,4.56-5.12,5.39-8.6-1.69,2.92-3.88,5.5-5.58,8.41-.33,.19-.51,.56-.46,.94,.27-.31,.46-.54,.65-.76h0Zm-21.06,50.68c.83-.77,1.48-1.72,1.91-2.77,.92-2.26,1.89-4.51,2.8-6.78,.15-.39,.54-.78,.14-1.48-1.73,3.66-3.4,7.2-5.06,10.75-.2,.14-.35,.37-.16,.55,.15,.13,.26-.14,.37-.26h0Zm18.83-51.36c-.18,.2-.37,.39-.54,.6-4.81,6.05-9.32,12.33-13.87,18.58-1.79,2.46-2.37,5.25-3.3,7.99,5.74-9.15,12.2-17.81,17.71-27.17h0Zm6.25,55.98c-5.45,.32-10.82,1.56-15.86,3.66,5.93,2.37,10.76-.57,15.86-3.66h0Zm24.22-4.49c-6.21,.09-12.35,1.23-18.18,3.38,1.54,.16,3.07,.15,4.59,.16,.8,.15,1.63,.15,2.43,0,3.68-1.27,7.4-2.42,11.16-3.54h0Zm-59.51,21.3c4.96-.77,9.9-1.61,14.87-2.28,.4-.05,.71-.28,.73-.59-5.55-.87-10.81-.23-15.6,2.87h0Zm31.76-13.64c4.64-1.21,9.4-.86,13.57-3.18-4.77-.96-9.72,.2-13.57,3.18h0Zm41.77,1.49c-5.16-1.08-10.46-1.39-15.71-.92,3.95,.14,7.87,.85,11.62,2.1,1.05,.44,2.26,.24,3.12-.51,.22-.15,.44-.3,.97-.67h0Zm-64.59-19.08c3.46-6.37,6.45-12.97,9.86-19.35-4.69,5.74-7.26,12.55-9.86,19.35h0Zm-8.13-57.3l.12,.36c6.2-2.2,12.4-4.4,18.61-6.6-6.57,.93-12.92,3.05-18.74,6.24h.01Zm2.06,54.9c3.51-4.06,5.5-8.56,7.41-13.1-2.98,3.94-5.74,8-7.41,13.1h0Zm34.79-72.41c-4.9,.1-9.79,.68-14.58,1.73,4.9-.29,9.93,.56,14.58-1.73h0Zm1.08,12.85c2.69-.88,5.3-1.36,6.53-4.13-2.94,.06-5.23,1.07-6.53,4.13h0Zm-22.37,61.41c2.46-4.03,3.78-8.53,5.25-12.97-1.99,4.22-3.74,8.55-5.25,12.97Zm35.95-76.59c-2.7,.16-5.37,.69-7.94,1.55,2.8,.16,5.67,.62,7.94-1.55h0Zm-46.5,88.92c-1.4,2.42-1.85,5.12-2.45,7.78,2.07-2.18,2.52-4.91,2.45-7.78Zm8.61-16.12c1.96-3.42,3.92-6.84,5.87-10.25-2.77,2.88-4.79,6.4-5.87,10.25Zm-4.92-62.81c-4.09-.57-10.3-.37-11.37,.38,3.85,0,7.61,.38,11.37-.38Zm3.18,63.68c-2.04,2.97-3.61,6.24-4.65,9.69,2.43-3.06,3.44-6.4,4.65-9.69Zm-3.58,12.77l5.67-11.7c-2.5,3.58-4.41,7.52-5.67,11.7Zm-7.69-10.75c-.11-.07-.22-.15-.33-.22l-4.49,7.25c.1,.06,.21,.13,.31,.19,1.46-2.44,3.83-4.3,4.51-7.22h0Zm41.7-58.44c1.72-1.61,3.12-3.53,4.12-5.66-2.48,1.36-3.12,3.64-4.12,5.66h0Zm16.33-12.22c.79,.31,1.51,.18,2.1,.77,.62,.62,1.31-.13,1.96-.29,.67-.11,1.32-.36,1.89-.73-2.03-.73-3.9-.03-5.96,.25h0Zm-52.17,93.79c2.14-.35,4.29-.69,6.43-1.04,.42-.07,.49-.36,.45-.69-.06-.55-.49-.29-.72-.24-2.12,.42-4.19,1.08-6.16,1.97Zm-7.96-4.48c-1.37,1.87-2.23,4.06-2.51,6.36,1.48-1.94,2.68-4.98,2.51-6.36Zm26.13-38.11c1.65-2.39,3.53-4.64,4.65-7.76-2.22,2.48-3.32,5.2-4.65,7.76Zm-28.2,55.11c-1.93,.06-3.48,1.62-3.52,3.55,1.29-1.06,2.47-2.25,3.52-3.55Zm3.62-11.2c3.91-1.42,3.19-.94,3.02-2.58-.22,.24-.41,.5-.64,.71-.28,.25-.45,.83-.93,.55-.42-.24-.18-.75-.11-1.13,.26-.91,.4-1.85,.42-2.79-.66,1.94-1.18,3.49-1.77,5.24h0Zm36.26-59.83c-2.85,2.54-4.66,5-4.76,6.44,1.62-2.27,3.5-4.11,4.76-6.44h0Zm.31-16.1c1.94-1.9,3.43-4.21,4.34-6.77-1.64,2.12-3.1,4.39-4.34,6.77h0Zm-11.99-11.52c2.78-.04,5.56-.33,8.29-.86-2.78,.12-5.59,.03-8.29,.86Zm-19.06,95.68c-2.37,.18-4.71,.67-6.95,1.46,2.37-.21,4.7-.7,6.95-1.46Zm61.4-10.52c-1.84-1.09-3.56-.34-5.3,.25,1.76-.02,3.55,.26,5.3-.25Zm-41.22-86.81c-2.25-.31-4.05-.37-5.7,.7,1.77-.26,3.61,.03,5.7-.7Zm-22.61,74.06c-.95,1.48-1.6,3.12-1.91,4.85,.73-1.58,1.83-3.01,1.91-4.85Zm-6.98,23.16c.91-.35,1.48-.57,2.05-.8,.45-.18,.43-.55,.3-.9-.12-.33-.21-.77-.59-.85-.33-.07-.52,.28-.68,.56-.3,.55-.6,1.1-1.09,1.99h.01Zm48.18-103.51c1.45,.58,3.1,.33,4.31-.65-1.45,.12-2.89,.34-4.31,.65h0Zm-19.49,53.14c-1.39,1.29-2.22,3.07-2.32,4.97,.81-1.74,1.57-3.36,2.32-4.97Zm-9.2,38.89h5.14c-1.66-.63-3.48-.63-5.14,0Zm27.45-87c.89-.51,2.47,.38,2.84-1.53-1.05,.5-2.19,.47-2.84,1.53h0Zm-38.94,91.48c-1.71,.15-3.39,.53-5,1.12,1.73,.04,3.45-.34,5-1.12Zm-7.92,5.12c-1.82,.18-1.59,1.57-1.9,2.6,.86-.68,1.51-1.58,1.9-2.6Zm62.28-100.47c-.8-.2-1.63-.17-2.41,.09-.19,.09-.41,.25-.33,.51,.07,.23,.32,.36,.55,.29,.78-.16,1.52-.47,2.19-.9h0Zm-17.52,90.07c1.28-.01,2.55-.21,3.78-.59-1.29-.35-2.66-.14-3.78,.59Zm-5.2-86.86c-1.64-.08-3.27,.29-4.72,1.06,1.61-.18,3.19-.53,4.72-1.06h0Zm12.93,13.07c-.77,1.04-1.53,2.08-2.3,3.12,1.27-.56,2.14-1.75,2.3-3.12h0Zm-51,78.72c1.71-.41,1.98-.94,1.28-2.45-.42,.79-.81,1.55-1.28,2.45h0Zm51.83-82.35c.86-.68,1.74-1.36,1.66-2.68-1.14,.6-1.2,1.77-1.66,2.68h0Zm-32.37,80.12c1.56-.12,3.1-.45,4.57-.99-1.56,.11-3.1,.45-4.57,.99Zm-23.82-87.55c1.24,.27,2.53,.24,3.76-.06-1.26,0-2.51-.4-3.76,.06Zm-1.73,99.08c.47-.85,.95-1.7,1.54-2.76-1.17,.6-1.38,.95-1.54,2.76Zm48.69-101.2c1.22-.14,2.4-.51,3.49-1.08-1.22,.14-2.41,.5-3.49,1.08Zm5.44,85.3c1.25,.21,2.54-.18,3.46-1.05-1.05,.32-2.1,.64-3.46,1.05Zm-51.14,16.34c.94-.16,1.98,.05,2.78-.67-.97-.07-1.94,.17-2.78,.67h0Zm15.5-44.63c.81-.69,1.43-1.57,1.83-2.55-.79,.71-1.41,1.58-1.83,2.55h0Zm7.68,38.13c1.33,.14,1.5,.1,3.37-.8-1.31,.34-2.4,.1-3.37,.8h0Zm-11.73-15.75c.53-.99,.95-2.04,1.24-3.13-.83,.83-1.27,1.96-1.24,3.13Zm32.21-84.1c1.16,.12,2.33-.1,3.38-.61-1.16-.06-2.31,.15-3.38,.61h0Zm-12.5,5.67c1.08,.09,2.2,.54,3.44-.41-1.32,.16-2.38,.29-3.44,.41h0Zm-17.03,58.15c.65-.61,1.16-1.37,1.48-2.2-.78,.49-1.32,1.29-1.48,2.2h0Zm48.14,21.6c1.09,.22,2.21-.11,3-.89-1.05,.08-2.07,.39-3,.89Zm-50.17,18.52v-.06h-.58v.09c.19-.01,.39-.02,.58-.04h0Zm4.69-94.09h.25v-.02c-.08,0-.17,0-.25-.02v.03h0Zm-.67,.23c-.17,0-.3-.03-.42-.03-.02,0-.04,.08-.06,.12,.08,.01,.17,.02,.25,.02,.06,0,.12-.06,.23-.11Zm43.96,74.88c-.08,.04-.14,.08-.21,.11,.07,.03,.14,.06,.22,.07,.08-.01,.16-.03,.23-.06-.08-.04-.17-.08-.24-.12h0Zm-15.17-80.03c-.06,0-.12-.02-.18-.03l.31,.03h-.13Zm-8.28,37.51c-.11,.06-.23,.09-.25,.15-.05,.16,.08,.21,.2,.17,.08-.02,.14-.08,.16-.16,.01-.05-.08-.12-.12-.17h0Zm-26.39,54.43l-.09-.06s.07-.03,.1-.03,.06,.03,.09,.05c-.03,0-.07,.02-.1,.03h0Zm2.56-16.15l.06,.05v-.08l-.06,.04h0Z"/>
  <path id="Path_5" data-name="Path 5" class="cls-1" d="M170.69,160.7c1.56,4.4,3.19,8.78,4.4,13.3,.08,.31,.16,.62,.25,.92s.1,.56-.21,.69-.49-.15-.64-.37c-.18-.26-.33-.54-.49-.82-2.93-5.02-5.51-10.23-7.74-15.6-.09-.21-.17-.42-.27-.63s-.12-.58-.51-.44c-.36,.13-.22,.42-.16,.69,.38,1.64,.72,3.28,1.11,4.91,.73,3.04,1.52,6.08,2.22,9.13,.1,.45,.71,1.19-.02,1.43-.81,.26-.77-.73-.96-1.19-2.65-6.27-4.83-12.73-6.51-19.33-.58-1.82-1.39-3.57-2.41-5.19-2.06-3.84-4.12-7.68-5.99-11.61-.15-.19-.03-.6-.54-.55,.08,.29,.16,.57,.24,.85,.88,3.66,1.71,7.34,2.66,10.98,.24,.83,.67,1.6,1.25,2.24,.99,1.11-.84,1.13-.63,1.88-.84,.17-.81-.57-.98-1.01-3.42-8.86-6.5-17.82-7.66-27.51-1.81,.92-3.44,1.79-5.11,2.58-2.75,1.3-5.51,2.58-8.29,3.8-.8,.25-1.31,1.03-1.21,1.86,0,.78-.05,1.55-.14,2.32-.03,.37,.15,.95-.49,.91-.53-.03-.36-.54-.36-.88,0-.91,0-1.82,0-2.78-.9-.11-1.19,.51-1.26,1.18-.37,3.76-1.18,7.48-1.42,11.23-.2,3.13,.82,6.19,1.59,9.24,.07,.26,.16,.52,.22,.78,.07,.31,.16,.68-.28,.78-.32,.07-.46-.22-.55-.49-.44-1.29-.88-2.57-1.3-3.87-.14-.59-.38-1.15-.69-1.67-.33,1.64-.76,3.26-1.3,4.85-1.64,4.06-1.67,8.35-2.08,12.59-.4,4.08-.61,8.17-.97,12.26-.04,.51,.25,1.45-.52,1.47-.7,.02-.56-.95-.66-1.47-.77-3.7-1.27-7.45-1.48-11.22-.02-.5-.1-.99-.14-1.47-.16,0-.27-.04-.33,0-.53,.38-.91,1.41-1.55,1.09-.75-.38-.49-1.48-.62-2.26-1.68-9.83-.51-19.48,1.98-29.03,.07-.26,.13-.53,.17-.8,.01-.13,.01-.26,0-.39-1.96,.29-3.88,.58-5.8,.86-.31,.05-.67,.22-.82-.2-.14-.39,.18-.56,.46-.73,.34-.21,.93-.24,.38-.9-.35-.42,.44-.58,.45-1.09-.81,.08-1.63,.02-2.42-.19-.3-.06-.52-.19-.5-.52,.02-.41,.34-.4,.6-.32,2.85,.82,5.02-.45,7.01-2.28l.36-.33c-.24-.23-.44-.09-.63,.08-.29,0-.65,.22-.81-.23s.24-.52,.48-.7c.08-.05,.16-.09,.25-.11,3.05-.79,4.33-3.02,5.02-5.88,.47-1.89,1.11-3.74,1.89-5.53,1.1-2.58,1.15-5.31,1.42-8.01,.75-8.84,2.18-17.6,4.3-26.21,.13-.53,.09-1.08-.13-1.58-2.02-5.17-3.32-10.59-3.86-16.11-.19-3.46,.13-6.92,.96-10.28,.09-.42,.13-.96,.8-.87l.37,.28c.11-.18,.07-.42-.1-.55-.43-1.25-.73-2.53-.91-3.84-.02-.3-.13-.69,.35-.74s.45,.31,.5,.63c.06,.54,.18,1.08,.33,1.6,.07,.24,.05,1.01,.67,.28,.23-.26,.56-.02,.65,.39,.15,.66,.37,1.31,.51,1.98,1,4.55,3.49,8.4,5.74,12.45,1.36-1.86,1.35-3.97,1.86-5.92,.75-3.04,1.73-6.02,2.94-8.91,.15-.35,.17-.93,.71-.85s.45,.61,.48,1c.18,1.58,.25,3.18,.23,4.77-.24,3.9,1.39,7.38,2.34,11,2.18,8.35,4.16,16.75,5.93,25.19,.16,.8,.43,1.57,.82,2.29,2.08,3.78,4.17,7.56,6.17,11.38,.48,.91,.92,1.06,1.9,.8,2.39-.64,2.42-.58,2.03-3.04-.22-1.39-.5-2.77-.71-4.17-.07-.45-.42-1.12,.24-1.29,.63-.16,.54,.62,.67,.98,.38,1.11,.67,2.24,1,3.37,.4-.14,.36-.45,.4-.7s.12-.44,.41-.44c.22-.02,.42,.14,.44,.36,0,.02,0,.04,0,.06-.1,2.02,.84,2.34,2.7,2.07,1.65-.25,2.25,.73,2.29,2.94,2.26-.68,4.5-1.36,6.75-2.02,.37-.11,.89-.4,1.11,.03,.32,.6-.37,.73-.71,.94-3.02,1.78-6.01,3.59-9.09,5.25-.73,.24-1.13,1.03-.89,1.77,.03,.09,.07,.17,.11,.25,.32,.94,.55,1.92,.83,2.87,.09,.3,.32,.62-.14,.79-.43,.16-.53-.22-.67-.49-.53-1-1.04-2.01-1.58-3-.11-.2-.09-.6-.49-.52-.27,.04-.46,.28-.42,.55,0,.02,0,.04,.01,.06,.4,1.93-.08,3.91,1.14,5.83,2.44,3.82,4.52,7.88,6.74,11.84,.2,.36,.7,.79,.17,1.18-.42,.32-.74-.21-1.04-.42-4.98-3.56-8.35-8.43-11.18-13.75-.29-.55-.29-1.7-1.14-1.45-.39,.11,.29,1.14,.55,1.71,4.31,9.63,8.07,19.45,10.28,29.8,.13,.63,.67,1.52,.09,1.88-.68,.42-1.07-.58-1.54-1-.81-.73-1.54-1.55-2.3-2.33-.03-.03-.09-.01-.18-.03-.11,.8,.12,1.61,.63,2.24,1.62,2.74,3.25,5.47,4.86,8.21,.19,.33,.64,.71,.2,1.07-.5,.41-.63-.3-.94-.47-.12-.16-.25-.31-.37-.47-.09-.28-.28-.29-.5-.16,.1,.13,.2,.25,.3,.38,.09,.16,.17,.33,.26,.49,.82,1.57,1.77,3.08,2.49,4.67,1.16,2.57,1.98,5.3,2.93,7.96,.09,.26,.14,.56-.24,.66-.34,.09-.49-.17-.58-.43-.22-.64-.44-1.28-.61-1.94-.92-2.92-2.46-5.61-4.52-7.88-.09-.12-.15-.34-.35-.2s0,.28,.03,.43v.08Zm-10.01-31.48c.03-.17,.05-.33,.08-.5h-.13c.02,.16,.05,.32,.07,.48,.25,.41,.16,.99,.66,1.27-.03,.22-.03,.44,0,.66,1.03,3.32,2.07,6.64,3.13,9.95,.06,.19,.06,.57,.52,.51-.13-.49-.23-.97-.37-1.43-.84-3.31-1.95-6.54-3.3-9.67,.11-.53-.16-1.06-.65-1.28h-.01Zm-16.9-28.21s.1,.09,.15,.13c.01,0,.03,0,.04,.01,0-.21-.15-.08-.23-.12,.26-1.34-.36-2.54-.65-3.8-.04,1.29,.19,2.58,.68,3.77h.01Zm4.69,25.42c0-.2-.03-.4-.05-.67-.19,.3-.25,.51,.07,.65,.02,1.25,.27,2.49,.75,3.65,0-1.26,.08-2.55-.77-3.63h0Zm-7.67-38.23l.03-.06-.06,.04c.2-1.27,.08-2.57-.35-3.78-.37,1.27-.23,2.63,.39,3.8h0Zm2.78,2.64l-.19-.28s-.02,.09-.02,.13c.03,.13,.05,.28,.23,.12-.17,1.7,.64,3.21,1.02,4.81-.45-1.57-.18-3.29-1.04-4.77h0Zm1.91,3.85l-.12-.15,.14,.13c.12,1.7,.48,3.38,1.07,4.98l.03-.03h-.06c.04-1.73,.14-3.47-1.07-4.93h0Zm-19.48,56.8c.8-1.9,1.26-3.92,1.37-5.97-.77,1.91-1.23,3.94-1.35,6-.04,.1-.08,.2-.13,.31,.04-.11,.07-.23,.11-.34h0Zm4.13-84.41c0-.12,0-.24,0-.36l-.17,.06c.07,.1,.14,.19,.21,.29,.6,2.13,1.4,4.21,2.38,6.2-.17-1.3-.47-2.57-.89-3.81-.21-.94-.75-1.78-1.52-2.37h0Zm-1.62,42.08c.54-.71,.83-1.59,.83-2.48,1.17-6.76,2.21-13.55,3.88-20.21,.48-1.29,.26-2.72-.58-3.81-.12,.38-.23,.68-.3,.98-1.46,6.05-2.54,12.2-3.21,18.39-.44,2.36-.64,4.76-.59,7.16-.29-.06-.2,.16-.21,.3,0,.03,.04,.07,.07,.11,.04-.14,.08-.29,.12-.43h0Zm5.66,8.5c3.05-1.96,6.22-3.7,9.51-5.22,.68-.31,.5-.74,.4-1.21-.39-1.86-.91-3.71-1.14-5.59-.46-3.66-2.53-6.57-4.11-9.99-1.58,7.47-3.1,14.63-4.66,22.01h0Zm35.99,29.87c-.39-1.58-.76-3.17-1.18-4.74-2.41-8.74-5.57-17.26-9.44-25.46-.12-.26-.08-.76-.67-.63-.88,.12-1.5,.93-1.38,1.81,0,.07,.02,.15,.04,.22,.16,.57,.36,1.12,.62,1.65,2.9,6.65,5.76,13.34,7.45,20.41,.7,2.93,2.39,4.87,4.56,6.74h0Zm-35.53-75.73c.37-.66-.26-1.52,.49-1.7,1.44-.35,1.31-1.21,.95-2.22-.94-2.64-1.93-5.27-2.85-7.92-.82-2.02-2.02-3.87-3.52-5.45-.45,3.75-2.25,7.56,.94,11.2-.23-1.02-.42-1.86-.61-2.69-.09-.38-.38-.88,.18-1.04,.52-.14,.57,.46,.75,.79,.13,.24,.2,.5,.31,.75,1.1,2.72,2.21,5.43,3.37,8.28h0Zm24.87,75.83c-.03-.75-.22-1.48-.55-2.15-1.84-3.9-3.32-7.96-4.45-12.12-.91-3.74-2.21-7.38-3.88-10.86-.13-.25-.09-.85-.66-.63-.37,.15-.76,.36-.65,.9,.03,.18,.05,.36,.05,.54,.2,2.58,.84,5.11,1.89,7.48,2.38,5.79,5.14,11.41,8.25,16.84h0Zm-15.1-84.41c-.06,1.28-1.77,2.55,.04,3.82,.07,.05,.06,.27,0,.39-.15,.67-.07,1.37,.23,1.99,1.38,4.61,2.63,9.25,3.59,13.97,.49,2.31,1.42,4.51,2.75,6.46-1.93-9.18-4.04-17.95-6.63-26.63h.01Zm27.3,66.08c-2.75-4.89-5.5-9.78-8.24-14.66-.16-.28-.33-.8-.76-.32-.44,.5-1.79,.46-1.25,1.56,2.54,5.12,5.58,9.88,10.25,13.43h0Zm-47.57,30.58c-.89,1.41-1.6,2.55-2.33,3.68-.23,.28-.36,.64-.35,1,.14,3.55,.59,7.07,1.34,10.54,.43-4.97,.87-9.94,1.33-15.22h.01Zm48.81,10.9c.17-.34,.17-.75-.02-1.08-.9-2.56-1.92-5.09-2.65-7.71-.75-2.72-2.92-4.51-4.15-6.9-.05-.11-.19-.32-.5-.06,2.09,5.4,4.53,10.67,7.31,15.75h0Zm-40.06-43.75c4.27-1.33,8.46-2.88,12.57-4.65,1.35-.56,1.65-1.18,.89-2.49-4.44,2.46-8.95,4.79-13.45,7.14h0Zm14.55-28.18c.17,3.23,.23,6.28,1.56,9.1,.29,.61,0,1.87,1.07,1.67,1.35-.26,.44-1.35,.3-2-.64-2.94-1.03-5.98-2.93-8.78h0Zm-12.8,22.86c.23,.04,.47,.06,.7,.05,3.28-1.39,6.58-2.73,9.77-4.32,.79-.39,.37-.94,.21-1.38-.25-.68-.72-.16-.99-.01-3.25,1.69-6.39,3.57-9.69,5.67h0Zm12.42-39.49c-.79-4.18-1.92-8.28-3.38-12.28,.19,4.33,.9,8.52,3.38,12.28h0Zm-24.93,56.33c-1.12,4.12-2.67,8.14-2.24,12.51,1.57-4.03,1.95-8.27,2.24-12.51h0Zm27.65-43.29c-.03-3.27-1.88-8.29-3.72-10.09,.72,3.56,1.59,7.05,3.72,10.09Zm-15.78,24.26c3.42-1.85,6.74-3.69,10.18-5.28,.47-.22,.65-.54,.41-.96-.29-.5-.66-.04-.92,.09-3.11,1.48-6.13,3.16-9.02,5.04-.33,.22-.77,.35-.67,1.11h.02Zm19.59-22.82c.03,.89,.28,1.76,.73,2.53,.95,2.39,1.97,4.76,2.9,7.17,.28,.72,.71,.68,1.26,.51,.77-.25,.33-.69,.13-1.05-1.67-3.06-3.34-6.11-5.02-9.16h0Zm.04,6.13c-.46-3.49-1.18-6.76-3.26-9.79,.47,3.55,1.07,6.86,3.26,9.79Zm11.94,61.74c.04-3.5-1.76-9.04-3.49-10.78,.97,3.65,2.13,7.25,3.49,10.78Zm-45.04-6.74c-1.91,1.94-2.38,4.87-1.19,7.31,1.1-2.27,1.51-4.81,1.19-7.31Zm12.21-78.86c.27-3.71-2.04-6.69-2.97-10.06,.49,3.48,1.49,6.87,2.97,10.06h0Zm-6.13,54.73c-1.02,3.36-1.06,6.86-1.33,10.32,1.03-3.36,2.02-6.72,1.33-10.32h0Zm33.08-5.05c.32,3.42,.51,6.9,3.22,9.91-1.15-3.53-2.18-6.72-3.22-9.91h0Zm-7.45-26.48c-.08,.03-.15,.05-.23,.08,.32,1.9,.62,3.81,.96,5.71,.05,.27,.12,.68,.6,.43,.39-.21,1.08-.05,1.01-.82,0-.32-.06-.64-.16-.94-.71-1.5-1.45-2.98-2.19-4.47h0Zm-30.55,49.3c1.26-3.02,1.88-6.26,1.82-9.53-.52,1.29-.92,2.63-1.21,3.99-.31,1.83-.42,3.69-.62,5.54h0Zm-2.96,7.33c1.42-2.2,2.38-4.2,2.01-6.92-.21,.84-.33,1.4-.49,1.95-.08,.29-.14,.68-.55,.66-.31-.02-.36-.34-.45-.6-.06-.19,.09-.5-.26-.6-.24,1.83-.33,3.67-.26,5.51Zm40.66-16.57c.2,2.66,1.26,5.19,3.02,7.2-.32-2.69-1.72-4.93-3.02-7.2h0Zm-35.87,7.05c-.55,2.93-2.5,5.55-1.96,8.74,.8-2.88,2.11-5.63,1.96-8.74h0Zm16.52-60.43c-.63,1.52,.02,4.29,1.45,6.27,.11-2.18-.4-4.35-1.45-6.27h0Zm-1.46,37.44l-.13-.33c-1.8,.66-3.6,1.31-5.39,2-.54,.21-.43,.71-.32,1.27,2.01-.84,3.96-1.83,5.84-2.94h0Zm-15.45,29.61c-.31,1.08-.66,2.14-.93,3.23-.26,1.04-.91,2.01-.72,3.27,1.8-2.26,2.11-3.41,1.65-6.5h0Zm15.03-61.84l-.38-.07-1.85,10.81c1-3.52,1.74-7.11,2.23-10.74h0Zm-5.63-.93c1.87-3.57,2.34-6.04,1.51-6.88-.51,2.31-1.01,4.6-1.51,6.88h0Zm33.66,59.39c-.69-2.41-1.85-4.65-3.43-6.6,.52,2.51,2.2,4.44,3.43,6.6h0Zm-11.08-33.54c-.11,.04-.22,.09-.33,.13,.86,2.94,1.31,6,2.82,8.75l-2.49-8.88Zm-.41-16.79c-.04,1.68,.27,3.35,.9,4.91,.19,.39,.46,.58,.87,.39,.43-.2,.18-.52,.06-.81-.61-1.5-1.22-3-1.83-4.49h0Zm13.5,4.58c.73-.12,1.51,.22,1.62-.77,.18-.63-.03-1.3-.54-1.71-.66-.43-2.04-.02-2.8,.79,1.74,.02,2.31,.58,1.72,1.69h0Zm-26.54-7.43c.13-.04,.26-.08,.4-.11-.87-2.04-1.75-4.08-2.62-6.13-.13,.05-.25,.11-.38,.16,.36,2.23,1.83,4.01,2.6,6.08h0Zm15.93,40.71c.17-2.24-1.11-5.8-2.23-6.51,.76,2.22,1.5,4.36,2.23,6.51h0Zm-41.05-6.27c3.49-.2,4.31-.56,4.26-1.77-1.53,.28-2.98,.88-4.26,1.77h0Zm57.27-27.25c-1.45,.31-3.02,.42-4.33,1.64,2.02,.58,2.99-.97,4.33-1.64h0Zm-49.7,18.23c.14,.08,.28,.16,.42,.23,1.27-1.53,1.11-3.51,1.31-5.39l-1.72,5.16h0Zm21.78-32.75c.19-1.99-.78-3.62-1.69-5.28,.23,1.85,.8,3.64,1.69,5.28h0Zm-12.25-12.88c-.86,1.37-.32,2.49,.35,3.71,.68-1.19,.54-2.67-.35-3.71h0Zm-4.24,53.23c-.9,1.27-1.37,3.93-.98,4.87,.33-1.66,.65-3.26,.98-4.87h0Zm13.83-73.23c-.58,1.39-.8,2.9-.64,4.39l.34,.03c.1-1.47,.2-2.95,.3-4.42h0Zm-7.45,13.06c-.2,1.03-.06,2.09,.41,3.03,.6-1.19,.88-2.11-.41-3.03h0Zm15.05,29.19c.11-1.71-.45-3.39-1.57-4.69,.55,1.63,1.03,3.07,1.57,4.69h0Zm12.03,5.42c-.62,.11-1.24,.19-1.85,.33-.22,.05-.61,.04-.48,.46,.08,.26,.25,.52,.58,.44,.65-.15,1.29-.34,1.93-.53,.22-.08,.34-.33,.26-.55,0,0,0,0,0,0-.05-.21-.27-.18-.44-.14h0Zm.28,45.99c-.24-1.44-1.38-2.32-2.12-3.45,.08,1.55,1.39,2.31,2.12,3.45h0Zm-6.07-36.6c.5-.61,1.54-.51,1.26-1.56-.14-.53-.52-.36-.86-.25-.99,.34-.5,1.01-.4,1.81h0Zm-11.42-12.44c-.07,1.4,.46,2.77,1.45,3.77-.48-1.26-.97-2.51-1.45-3.77h0Zm-22.26,34.71c.52-1.05,.79-2.21,.81-3.38-.81,1.01-.64,2.25-.81,3.38h0Zm31.08-11.02c.5,1.29,.99,2.59,1.62,4.24-.04-1.56-.62-3.05-1.62-4.24h0Zm-.3-17.16c.21-.24,.91-.04,.81-.75-.04-.27-.09-.76-.54-.56-.36,.16-1.03,0-1.03,.66,0,.34,.14,.73,.76,.65h0Zm2.31,10.7c.37,1.3,.75,2.6,1.12,3.9-.14-1.37-.02-2.8-1.12-3.9h0Zm2.05-12.2c.36-.32,1.12,0,1.25-.7,.04-.19-.17-.59-.5-.52-.45,.1-1.05,.03-1.26,.54-.12,.27,.07,.61,.51,.68h0Zm-23.55-33.7c-.95,1.21-.04,2.08,.25,3.02,.13-1.01,.05-2.04-.25-3.02h0Zm2.16-2.86c.73-.85,.02-1.47-.27-2.21-.8,.9-.54,1.58,.27,2.21h0Zm-2.09,13.04c0-.93,.51-1.67-.02-2.78-.28,1.06-.77,1.77,.02,2.78h0Zm16.1,25.53c-.09-.22-.1-.66-.57-.44-.23,.11-.74,.06-.6,.55,.07,.27,.07,.75,.53,.62,.28-.08,.79-.11,.64-.73h0Zm-8.25-37.86c-.77,1.07,.06,1.65,.55,2.31-.18-.74-.35-1.47-.55-2.31h0Zm-20.96,55.27c-.73,.52-1.46,1.03-2.2,1.55,.9-.26,1.82-.48,2.2-1.55h0Zm8.71,1.67c.83,.02,1.17-.26,1.12-.94,0-.21,.06-.47-.31-.42-.78,.1-.56,.79-.81,1.36h0Zm12.49-52.57c0-.73-.35-1.41-.94-1.83-.08,.88,.45,1.33,.94,1.83Zm-.26,19.28l-.05,.09s-.02-.07-.02-.1c0-.03,.03-.06,.05-.09,0,.03,0,.07,.02,.1Zm2.46,6.52l-.05,.08,.04,.02v-.1h.01Zm-22.21,36.15l.04-.12,.04,.12h-.08Zm34.84,1.25s-.04-.08-.07-.11c-.03,.07-.05,.14-.07,.22,.01,.04,.03,.08,.05,.11,.03-.07,.06-.15,.08-.22h.01Z"/>
  <path id="Path_6" data-name="Path 6" class="cls-1" d="M328.68,102.15c.15-8.49,1.3-16.5,4.8-24.02,3.47-7.45,8.88-12.73,16.81-15.34,1.95-.74,3.83-1.66,5.61-2.75,10.13-5.73,20.26-5.48,30.4-.06,.87,.49,1.76,.94,2.68,1.33,8.69,3.48,13.37,10.09,14.89,19.17,.92,6.23,.7,12.57-.67,18.71-.18,.8-.25,1.62-.18,2.43,.97,9.54-1.6,18.14-6.8,26.1-2.16,3.3-3.83,6.91-6.23,10.08-5.32,7.35-12.77,12.9-21.34,15.89-.3,.09-.59,.22-.85,.4-4.4,3.57-9.03,3.29-13.75,.75-1.36-.73-2.73-1.42-4.13-2.08-5.39-2.57-9.29-6.79-12.51-11.68-4.24-6.42-6.15-13.58-6.68-21.2-.2-2.8-.87-5.56-1.33-8.34-.43-3.11-.67-6.24-.73-9.37v-.02Zm54.08,36.18l-.26,.29c-.12,.1-.37,.18-.14,.37,.2,.16,.28-.1,.41-.2,.09-.09,.17-.18,.26-.27,.06-.07,.13-.14,.19-.2,.18-.2,.37-.4,.55-.6,.14-.21,.61-.31,.32-.64-.09-.1-.38,.22-.5,.44-.26,.08-.46,.28-.55,.54l-.27,.27h-.01Zm2.35-66.59c.05-.06,.11-.11,.16-.17-.04-.02-.07-.04-.11-.06l-.05,.23c.14,.06,.29,.12,.43,.18l.24,.3c.28,.44,.52,.92,1.18,.95-.34-.4-.69-.79-1.03-1.19-.13-.11-.26-.27-.42-.04,.06-.48-.22-.26-.42-.2h.02Zm-34.35-8.05c.06,.16,.16,.16,.27,.06,.04-.04,.04-.13,.06-.2-.1,.05-.2,.1-.3,.16s-.21,.15-.32,.22c-3.36,1.96-6.16,4.75-8.13,8.1,2.53-2.89,5.94-4.86,8.31-7.92,.12-.12,.37-.22,.09-.43h.02Zm-7.65,78.85c.13,.23,.29,.57,.57,.3,.2-.2-.13-.36-.29-.49s-.32-.29-.48-.43c-1.24-1.48-2.33-3.07-3.27-4.75,.41,2.04,1.8,3.46,3.06,4.96,.13,.14,.27,.28,.4,.41h.01Zm52.78-74.66l.26,.29c.69,.88,1.39,1.76,2.08,2.65,.38,.63,.76,1.26,1.21,2,.02-.88-.33-1.72-.97-2.32-.52-1-1.24-1.88-2.12-2.59-.08-.07-.15-.14-.23-.21-.22-.15-.34-.64-.67-.33-.13,.12,.22,.4,.44,.51h0Zm-5.13,41.26c.27-.22,.34-.6,.17-.9,.81-.49,.74-1.31,.68-2.11-.22,.71-.43,1.43-.64,2.14-.2,.25-.27,.59-.18,.9-.25,0-.3,.1-.17,.31,.05-.11,.09-.22,.14-.34h0Zm-7.24,30.38c-.23,.21-.45,.43-.77,.73,.37,.06,.74-.12,.91-.46l.3-.24c.6-.47,1.25-.91,1.81-1.43,4.84-4.52,9.56-9.13,11.65-15.69,.68-2.12,1.36-4.23,1.99-6.36,.3-1.04,.49-2.12,.7-3.19,.32-1.04,.48-2.12,.46-3.2-.09,.09-.17,.19-.24,.3-3.4,10.88-9.08,20.91-16.67,29.41-.06,.03-.1,.08-.13,.14h0Zm-1.67-.24c-.26,.32-.75,.49-.68,1.03-.09,.03-.19,.07-.28,.1,.02,.04,.05,.07,.07,.11,.07-.07,.14-.15,.21-.22,.38-.14,.68-.43,.85-.79,.08-.09,.25-.22,.23-.26-.13-.25-.27-.11-.39,.03h-.01Zm3.1-69.78c.11,.13,.22,.25,.34,.38,1.68,1.78,3.47,3.45,5.35,5.02-1.39-2.01-3.09-3.77-5.05-5.23-.13-.12-.26-.25-.4-.37-.29-.24-.51-.61-1.04-.65,.16,.36,.44,.66,.79,.85h0Zm2.78,4.87c-.19-.33-.28-.78-1.01-.93,.37,.51,.59,.81,.81,1.12,.28,.41,.56,.81,.85,1.22,.09-.06,.18-.13,.27-.19-.31-.4-.61-.8-.92-1.2v-.02Zm-20.24,67.03c.5-.23,.95-.57,1.31-.99,.13-.11,.25-.24,.06-.38-.21-.15-.26,.08-.34,.2l-1.21,.97c-.48,.37-.97,.74-1.45,1.11,.06,.08,.13,.15,.19,.23,.48-.38,.97-.76,1.45-1.15h-.01Zm-29.41-57c1.14-.38,1.06-1.48,1.32-2.37-.43,.8-.86,1.59-1.29,2.39-.04,.16-.08,.32-.12,.47,.06-.01,.12-.03,.18-.05-.02-.15-.06-.3-.09-.45h0Zm3.61-11.71c-.7,.79-1.19,1.74-1.41,2.77,.56-.85,1.13-1.7,1.69-2.55,.16-.23,.61-.51,.29-.73-.35-.25-.46,.23-.56,.5h-.01Zm49.3-9.49c-.08-.07-.17-.14-.25-.21,0,.06-.05,.16-.02,.18,.09,.08,.2,.17,.29,0,.41,1.26,1.7,1.07,2.57,1.57-.74-.69-1.63-1.22-2.59-1.54h0Zm-22.68,84.25c.92-.41,1.76-.97,2.49-1.67-1.06,.11-2.02,.64-2.67,1.48-.1,.12-.21,.24-.31,.36,.25,.17,.37,.02,.48-.17h.01Zm35.21-56.92v-5.18c-.07-3.19-.67-6.34-1.75-9.34,.02,.45,.09,.89,.18,1.33,.45,2.67,.9,5.33,1.35,8v5.19c-.42,1.83-.57,3.72-.43,5.6,.4-1.84,.61-3.72,.64-5.61h0Zm-21.78-31.47c-.11,.29,.12,.24,.26,.25,.07-.02,.14-.04,.2-.08-.16-.05-.33-.09-.49-.14-2.22-.88-4.64-1.1-6.98-.63,2.37-.1,4.65,.7,7.01,.6h0Zm-34.11,87.79c.18,.16,.41,.49,.61,.22,.17-.23-.2-.38-.4-.5-1.27-1.25-2.26-2.81-4.05-3.45,1.07,1.45,2.37,2.71,3.85,3.74h-.01Zm-9.58-53.21c-.07-.02-.15-.04-.22-.06-1.17,2.43-1.76,5.1-1.7,7.79,.55-2.6,1.14-5.2,1.88-7.76,.08-.21,.3-.42,.03-.67-.15,.21-.15,.49,0,.7h.01Zm28.4,57.67c-1.88,.2-3.58,1.14-5.47,1.34-1.32-.04-2.63,.23-3.83,.77,3.22,.08,6.41-.66,9.26-2.15,.12-.07,.24-.15,.36-.22-.04-.02-.08-.03-.12-.04-.17,.02-.35,.05-.2,.29h0Zm30.87-79.93c-.08-.28-.27-.28-.49-.17,.1,.12,.19,.24,.29,.37,1.46,2.88,2.33,6.03,2.56,9.25,.16,3.37,1.8,6.33,2.11,9.61,.06-2.61,.14-5.2,.05-7.78-.15-4.28-2.01-7.91-4.52-11.27h0Zm-58.79,56.52l.02,.08,.03-.07c-.2,.37-.23,.81-.06,1.19,2.19,6.86,5.62,12.7,12.81,15.4,.34,.13,.65,.32,1.03,.12-.04-.27-.27-.34-.46-.44-2.78-1.48-5.2-3.57-7.06-6.11-2.42-3.19-4.15-6.82-6.3-10.17h-.01Zm38.32,9.2c6.01-7.23,10.69-15.48,13.8-24.36,.17-.42,.13-.89-.1-1.28-4.29,8.85-8.57,17.45-13.97,25.42-.35,.49-.71,.97-1.06,1.46,.6-.21,1.08-.66,1.33-1.24h0Zm2.23-6.24c-4.18,5.61-8.96,10.58-15.28,14.07,2.27,.6,4.93,.34,5.89-.69,3.74-3.97,6.96-8.4,9.58-13.19,.25-.11,.28-.29,.15-.51l-.35,.32h.01Zm-14.71,11.28c4.64-3.23,8.6-7.34,11.66-12.09,1.89-2.75,3.49-5.69,4.77-8.77-3,4.28-6.42,8.21-9.8,12.18-2.44,2.69-4.72,5.52-6.82,8.49-.22,.06-.4,.31-.3,.41,.2,.2,.32-.11,.48-.22h0Zm26.59-7.61c-3.32,3.5-7.06,6.57-11.14,9.13-2.31,1.37-4.5,2.91-6.71,4.42-1.42,.97-2.73,2.11-4.22,2.99-1.53,.9-3.15,1.63-4.83,2.17-1.72,.53-3.51,.82-5.31,.88,.26,.04,.53,.07,.8,.09,3.49-.15,7.16,.29,9.78-2.87,.17-.21,.37-.42,.67-.14,.43,.4-.22,.67-.1,1.13,8.75-3.53,16.19-9.68,21.31-17.6,.14-.19,.5-.41,.24-.6-.24-.18-.38,.17-.48,.4h0Zm-19.68,3c-.88,.7-1.63,1.55-2.21,2.51,.98-.55,1.84-1.29,2.55-2.16,.17-.15,.35-.28,.51-.44,7.49-7.61,13.28-16.72,16.97-26.74,1.93-5.11,3.79-10.25,2.73-15.89-.2-1.81-.59-3.6-1.16-5.33-2.75,17.54-7.26,34.34-19.39,48.06h0Zm-32.88-23.4c-.55,3.67,.39,7.56,1.4,11.44,.56,2.14,.95,4.42,2.36,6.19,4.57,5.66,10.63,9.94,17.5,12.34,.86,.4,1.88,.08,2.35-.74,3.42-4.72,7.13-9.23,11.11-13.49,6.75-7.52,11.7-15.92,13.63-25.96,1.1-5.75,1.72-11.59,3.11-17.3,.04-.32-.02-.64-.17-.92-1.08-3.36-3.06-6.35-5.72-8.67-4.63-3.76-9.31-7.45-14.16-10.92-.46-.36-1.08-.44-1.62-.22-3.14,.92-6.18,2.12-9.1,3.59-5.2,2.69-9.91,5.9-12.74,11.31-1.53,2.83-2.89,5.76-4.06,8.76-1.05,2.8-2.3,5.55-2.71,8.54-.71,5.19-.97,10.42-1.19,16.05h.01Zm-8.05-1.3c.32-.44,.46-.99,.4-1.53,.42-7.35,1.55-14.65,3.36-21.79,1.69-6.39,3.63-12.66,7.41-18.19,1.52-2.16,3.29-4.14,5.28-5.88-.22-.04-.32-.1-.38-.07-.33,.16-.65,.33-.96,.5-5.76,3.21-9.4,8.23-11.87,14.15-4.4,10.55-4.52,21.55-3.24,32.8h0Zm59.9-28.19c.48-2.38,.45-4.3-1-6.2-1.91-2.49-3.73-5.03-5.81-7.39-3.32-3.78-7.86-4.56-12.63-5.5,.12,.17,.25,.33,.4,.48,3.75,2.73,7.26,5.77,11.08,8.41,1.76,1.22,3.31,2.72,4.6,4.43,1.3,1.81,2.42,3.74,3.35,5.77h.01Zm5.85,26.68c3.4-3.29,5.26-14.76,3.32-19.28-1.61,6.28-.93,12.87-3.32,19.28h0Zm-37.08,33.58c-5.63-2.17-10.38-5.55-14.93-9.26,.34,.66,.75,1.29,1.21,1.88,2.71,3.71,6.6,6.37,11.04,7.56,.86,.4,1.87,.33,2.67-.18h0Zm33.87-48.96c.55-4.33,1.9-8.74-1.19-12.89-.38,1.44-1,2.72-.58,4.1,.87,2.87,1.47,5.81,1.78,8.79h-.01Zm-17.8,44.37c3.13-.93,12.53-14.54,12.54-18.25-3.47,6.54-7.68,12.67-12.54,18.25Zm21.89-37.01c-2.53,6.91-4.2,14.09-7.27,20.79,3.9-6.32,6.38-13.41,7.27-20.79Zm-7.45-37.88c.34,4.49,4.33,6.55,6.35,9.89-.82-4.11-2.64-7.57-6.35-9.89Zm-33.74-4.06c3.98,.51,7.52-1.1,11.53-2.24-3.98-.47-8.01,.32-11.53,2.24Zm19.85-4.23c-4.17-.59-8.42-.27-12.45,.95,4.16,.75,8.45,.43,12.45-.95Zm20.07,46.93c1.7-3.67,2.17-7.79,1.35-11.75-1.4,3.78-.98,7.7-1.35,11.75h0Zm3.47,16c2.35-4.64,3.42-9.83,3.1-15.02-.7,5.07-1.73,10.09-3.1,15.02h0Zm-4.77-16.06c-1.2,4.57-3.09,8.95-4.11,13.74,1.49-1.59,3.97-9.89,4.11-13.74h0Zm-59.57,1.5c-.82,5.19-.73,10.47,.26,15.63,.23-5.22-.55-10.43-.26-15.63h0Zm20.42-35.19c3.68-1.72,7.35-3.47,11.17-4.84-4.36,.11-7.76,2.51-11.17,4.84h0Zm-1.41,76.63c3.49,1.34,7.35,1.32,10.82-.05-3.6,.89-7.19-.38-10.82,.05h0Zm40.54-55.16c-.06,3.91-1.4,7.65-1.47,11.56,.9-3.8,2.61-7.49,1.47-11.56h0Zm-5.13-23.8c-.41-2.98-1.73-4.23-4.89-4.46,1.78,1.5,2.95,3.38,4.89,4.46h0Zm-51.95,54.24c.23-3.73-.32-7.11-.57-10.51-.5,3.45-.82,6.88,.57,10.51h0Zm46.17-55.37c2.36,1.79,4.58,3.76,6.64,5.89-.99-3.58-3.88-4.66-6.64-5.89h0Zm-18.22,87.78c-2.94,.48-5.93,.56-8.89,.26,2.81,1.43,6.16,1.34,8.89-.26h0Zm-25.29-76.86c1.86-2.43,4.15-4.54,5.31-7.44-2.27,2.08-4.08,4.61-5.31,7.44h0Zm53.34-1.22c1.06-1.65,.22-3.34-2.43-4.84,.46,1.77,1.29,3.42,2.43,4.84h0Zm-16.58-16.14c-1.71-.55-3.51-.76-5.3-.62,1.73,2.21,3.57,.65,5.3,.62h0Zm20.9,26.73c-.5,2.2,.38,4.12,.6,6.12,.28-2.06,1.12-4.17-.6-6.12h0Zm-3.34-4c-.06,2.26,.3,4.52,1.05,6.65,.1-2.42,.51-4.58-1.05-6.65h0Zm-8.97-21.96c-2.28-.93-4.71-1.43-7.17-1.47,2.23,1.28,4.83,.72,7.17,1.47h0Zm-37.7,87.59c1.75,1.3,3.84,2.05,6.02,2.15-1.89-1.01-3.92-1.73-6.02-2.15h0Zm50.73-69.04c-.19-2.48-.93-4.88-2.17-7.04,.99,2.16,.72,4.69,2.17,7.04h0Zm-33.9-16.16c-2.15,.03-4.24,.73-5.97,2.01,2.07-.24,3.91-1.21,5.97-2.01h0Zm14.06,.08l-.15,.36,5.38,1.93c-1.52-1.19-3.31-1.98-5.22-2.29h-.01Zm-25.08,84.37c1.91,1.29,4.31,1.6,6.48,.84-2.18-.03-4.36-.32-6.48-.84h0Zm18.15-86.71c-1.42-1.62-2.63-1.78-4.36-.59,1.47,.08,2.92,.28,4.36,.59h0Zm-39.84,61.59c.16,2.2,.58,4.38,1.24,6.49-.42-2.15-.15-4.42-1.24-6.49Zm66.16-41.04c-.32,1.65,.03,3.35,.97,4.74,.25-1.65-.09-3.32-.97-4.74Zm-60.04,27.95c-.09-2.21,.48-4.18,.25-6.2-.45,2.04-.53,4.13-.25,6.2h0Zm-3.73,12.83c.22,1.75,.74,3.45,1.52,5.03-.3-1.73-.82-3.42-1.52-5.03h0Zm61.59-28.87c.61-1.67,.78-3.47,.5-5.22-.17,1.74-.33,3.48-.5,5.22h0Zm1.05-11.81c-.07-1.51,.25-2.79-.86-3.94,.08,1.34-.15,2.57,.86,3.94h0Zm-1.99-5.85c-1.06,1.36-1.04,1.54,.35,2.75-.12-.91-.23-1.76-.35-2.75h0Zm-13.29-12.51c1.01,.43,1.92,.82,3.03,1.29-.87-1.05-1.64-1.75-3.03-1.29Zm-22.26,87.23l-3.49-.6c1.03,.68,2.29,.9,3.49,.6h0Zm-20.15-24.13c-.23-.83-.46-1.67-.76-2.74-.3,.98,0,2.05,.76,2.74Zm33.3-61.67c.63-.11,1.16,.49,1.83,.24-.48-1.19-1.19-.57-1.83-.24Zm20.42,15.16c-.75,.94-.1,1.6,.34,2.5,.14-.85,.02-1.72-.34-2.5h0Zm-61.27,36.97c-.21,.89-.11,1.83,.3,2.65,.22-1.02-.3-1.79-.3-2.65h0Zm52.96-54.91c-.66,.04-1.23-.55-1.94-.24,.67-.13,1.25,.4,1.94,.24h0Zm16.29,46.88c-.01-.09-.03-.17-.04-.24-.04,.07-.07,.14-.09,.21,0,.08,.02,.16,.04,.23,.03-.07,.06-.13,.09-.2h0Zm-68.77,11.03c0,.18-.03,.3-.02,.42,0,.14,.07,.16,.12,.04,.03-.08,.04-.17,.03-.25,0-.06-.06-.11-.13-.22h0Zm53.47-57.62s-.04-.05-.06-.04c-.08,0-.16,.02-.24,.03,.02,.02,.04,.05,.06,.04,.08,0,.16-.02,.24-.03h0Zm16.09,12.78s0-.08-.01-.12c-.02,.03-.04,.06-.06,.09,0,.04,0,.07,.01,.11l.06-.09h0Zm-45.75,79.39l.07,.05v-.06h-.07Z"/>
  <path id="Path_7" data-name="Path 7" class="cls-1" d="M392.03,34.69h2.55c.3,0,.7-.07,.74,.39s-.34,.46-.67,.48c-2.18,.12-4.27,.9-6.5,.83,.09,.54,.59,.91,1.13,.82,.02,0,.03,0,.05,0,.38-.03,.98-.12,.95,.44-.03,.53-.63,.38-1.02,.39-.42-.01-.84,.04-1.24,.14,1.16,.41,2.39,.62,3.62,.6,1.81,.17,3.61,.46,5.39,.84,.34,.08,.81,0,.8,.52,0,.47-.47,.5-.8,.59-4.09,1.08-8.29,1.72-12.52,1.93-5.6,.33-11.21,.1-16.81,.26-3.51,.1-6.88,1.2-10.32,1.81-5.82,1.03-11.64,2.04-17.4,3.32-.38,.08-.81,.14-.91-.31-.08-.37,.35-.48,.64-.6,.62-.25,1.25-.48,1.92-.74-.38-.46-1.1,.14-1.27-.55-.1-.41,.37-.43,.6-.66-.52-.38-1.03-.15-1.49-.22-.37-.06-.92,.16-1-.4-.07-.45,.45-.47,.75-.65,.41-.23,.98-.19,1.23-.71-.59-.64-1.46,.31-2.11-.54-.54-.7-.68-.95,.2-1.28,1.07-.38,2.09-.87,3.06-1.46-.29,.01-.58,.01-.87,0-.36-.05-.93,.23-.97-.41-.03-.61,.59-.49,.93-.57,2.56-.65,5.17-1.08,7.8-1.31,4.01-.24,7.66-1.87,11.5-2.76,5.03-1.28,10.21-1.89,15.4-1.82,1.25,.04,2.39-.52,3.61-.61,.68-.05,1.57-.89,1.94,.47,.02,.07,.5,.05,.76,.02,1.27-.22,2.57-.13,3.79,.28,2.4,1.01,4.65,.58,6.99-.03,.68-.17,1.85-.99,2.13,0,.21,.73-1.21,.56-1.85,.89-.24,.1-.49,.18-.74,.24v.37h0Zm-17.58,7.3c5.9,.53,18.35-.61,20.79-1.93-2.43-.27-4.7-.97-6.91-.59-4.5,.78-8.99,1.7-13.88,2.52h0Zm-17.94-5.18c5.43-.03,10.86-.24,15.9-2.92-5.41,.25-10.76,1.23-15.9,2.92Zm3.16,6.65c-4.4,.07-8.75,.86-12.89,2.35,4.3-.78,8.6-1.56,12.89-2.35h0Zm.52-5.74c-3.12-.01-6.23,.34-9.26,1.06,3.12,.03,6.23-.33,9.26-1.06h0Zm-17.14,3.8c2.73-.44,5.44-1.03,8.1-1.78-2.82-.21-5.63,.41-8.1,1.78h0Zm34.08-1.04c2.06-.08,4.1-.41,6.08-1-2.08-.11-4.15,.23-6.08,1Zm-29.51,2.3c-1.71-.34-3.49,.11-4.84,1.21,1.64-.29,3.26-.69,4.84-1.21h0Zm29.09-7.95c-1.22,.19-2.38,.62-3.43,1.26,1.23-.11,2.42-.55,3.43-1.26h0Zm9.82-.46c-1.12-.33-2.06,.22-3.05,.56,1.05,.19,2.13-.01,3.05-.56h0Zm-45.73,8.94c.17-.06,.33-.12,.5-.18-.08-.07-.18-.12-.28-.16-.16-.03-.35-.02-.38,.21,0,.04,.1,.09,.16,.13h0Z"/>
  <path id="Path_8" data-name="Path 8" class="cls-1" d="M112.62,104.76c-.96-.35-.44-1.09-.34-1.61,.39-2.09,.97-4.15,1.28-6.25,.45-3.04-.15-6.07-.42-9.09-.05-.59-.13-1.17-.2-1.76-.03-.31-.15-.73,.26-.79,.48-.08,.54,.38,.6,.74,.07,.42,.11,.84,.19,1.54,.49-.66,.32-1.18,.45-1.61,.08-.3,.11-.71,.53-.67,.45,.05,.33,.45,.31,.76-.18,2.17-.36,4.33-.53,6.47,.4,.21,.41-.07,.48-.25,.11-.26,.27-.54,.58-.46,.43,.11,.31,.48,.26,.79-.48,3.55-.91,7.12-1.49,10.65-.14,.85-.72,1.63-.79,2.55,.02,.27-.19,.5-.46,.52-.02,0-.04,0-.06,0-.38-.02-.38-.31-.36-.6,.02-.23,.02-.45,.03-.68-.02-.14-.04-.29-.05-.43l-.27,.18h0Z"/>
</svg>